<?xml version="1.0" standalone="no"?>
<!DOCTYPE svg PUBLIC "-//W3C//DTD SVG 1.1//EN" "http://www.w3.org/Graphics/SVG/1.1/DTD/svg11.dtd" >
<svg xmlns="http://www.w3.org/2000/svg" xmlns:xlink="http://www.w3.org/1999/xlink" version="1.1">
<metadata></metadata>
<defs>
<font id="comic_strip_mnregular" horiz-adv-x="1610" >
<font-face units-per-em="2048" ascent="1638" descent="-410" />
<missing-glyph horiz-adv-x="1298" />
<glyph horiz-adv-x="0" />
<glyph unicode="&#xd;" horiz-adv-x="0" />
<glyph unicode=" "  horiz-adv-x="1298" />
<glyph unicode="&#x09;" horiz-adv-x="1298" />
<glyph unicode="&#xa0;" horiz-adv-x="1298" />
<glyph unicode="!" horiz-adv-x="569" d="M55 57q0 27 34 82.5t91 96.5q51 36 90.5 44.5t94.5 8.5q52 0 79 -31t27 -61q0 -86 -69 -150.5t-199 -64.5q-67 0 -113 28q-35 22 -35 47zM215 514v66q0 43 4 98t7.5 82t13.5 98q9 75 18 158.5t15 118t17 71.5t29 64q26 35 71 60.5t87 25.5q23 0 39 -24t24.5 -56.5 t8.5 -50.5q0 -21 -20.5 -112t-26.5 -138q-19 -146 -36 -229t-26 -121q-24 -118 -34.5 -158t-36 -66t-76.5 -26q-50 0 -64 28.5t-14 110.5z" />
<glyph unicode="&#x22;" horiz-adv-x="709" d="M55 1010q0 249 25 288q16 27 44.5 48.5t66 34t77.5 12.5q16 0 19.5 -4t7.5 -21q3 -5 6.5 -21t3.5 -51q0 -87 -63 -540q-10 -68 -44.5 -108t-78.5 -40q-31 0 -44 38t-16.5 114t-3.5 250zM399 934q0 316 31 366q23 37 76.5 65t114.5 28q34 0 34 -101q0 -36 -7 -92 t-23.5 -157.5t-26.5 -180.5q-10 -82 -22 -133t-40 -86t-79 -35q-28 0 -40.5 34t-15 95.5t-2.5 196.5z" />
<glyph unicode="$" horiz-adv-x="1438" d="M82 233q0 78 47.5 129.5t97.5 51.5q63 0 78 -54q16 -48 64.5 -82t91.5 -34q39 0 65 2v94q0 42 -12 180q-14 0 -73 7t-83 8q-88 4 -148.5 36t-92 80.5t-31.5 102.5q0 83 50.5 168.5t154.5 172.5t246 165q6 32 9 56t5.5 52t5.5 55q3 30 42.5 55t68.5 25q31 0 46 -12.5 t21.5 -49.5t12.5 -98q73 25 124 25q116 0 186 -40t70 -116q0 -61 -38 -105t-93 -44q-52 0 -79 6t-52 25q-40 32 -96 32q-6 4 -18 4q-11 0 -19 -32.5t-8 -83.5q0 -19 15.5 -70t15.5 -74q0 -31 -3.5 -53.5t-7.5 -50.5q218 20 279 20q84 0 140.5 -11.5t117.5 -29.5 q25 -6 44.5 -31t31.5 -69.5t12 -95.5q0 -84 -54 -172.5t-155 -165.5q-63 -48 -130.5 -82.5t-122.5 -53t-140 -42.5q0 -18 2 -47t2 -33q0 -43 -44.5 -78t-78.5 -35q-42 0 -55 2t-17.5 9t-17.5 36q-25 68 -31 109q-11 0 -18 -0.5t-16 -1.5q-122 0 -216 32.5t-145 88t-51 118.5 zM315 834q0 -29 53.5 -49.5t143.5 -20.5v57q0 63 10 106.5t17 57.5q0 12 -9.5 25.5t-19.5 13.5q-23 0 -37 -29q-7 -14 -54.5 -43.5t-75.5 -55t-28 -62.5zM758 526q14 -128 14 -188v-72q46 11 75 20t75 34t102 71q63 49 63 84q0 19 -2 28.5t-7 13.5t-15.5 8.5t-24.5 9.5 q-39 16 -92 16q3 0 -59.5 -12t-128.5 -13z" />
<glyph unicode="%" horiz-adv-x="1831" d="M55 958q0 69 42 145.5t115.5 142t166 105.5t194.5 40q57 0 96.5 -7.5t94.5 -42.5q71 -46 101 -107t30 -144q0 -51 -32.5 -111.5t-88.5 -89.5q-7 -3 -21.5 -22t-30.5 -35.5t-50 -34.5q-46 -23 -123.5 -41.5t-147.5 -18.5q-110 0 -179 22t-128 95q-23 30 -31 51t-8 53z M262 977q0 -27 38 -51.5t116 -24.5q26 0 77.5 13.5t73.5 23.5q56 29 83.5 84t27.5 84q0 58 -33 81t-110 23q-57 0 -122.5 -38t-108 -93t-42.5 -102zM469 78q0 27 36.5 107t121.5 229.5t204.5 339t264.5 405.5q80 121 126.5 169t102.5 48q11 0 20 -6.5t9 -17.5q0 -40 -18 -82 t-58 -109.5t-72 -120.5q-139 -233 -198.5 -334t-138.5 -236.5t-114 -202t-53 -107.5q-42 -102 -72 -140t-104 -38q-57 0 -57 96zM924 195q0 68 42 144.5t115.5 142t166 105.5t194.5 40q57 0 97.5 -8t92.5 -41q70 -47 100.5 -107t30.5 -145q0 -50 -32 -111t-89 -90 q-7 -3 -21.5 -23t-33.5 -38t-47 -33q-42 -23 -121 -41.5t-149 -18.5q-108 0 -177 22.5t-130 96.5q-22 29 -30.5 51t-8.5 54zM1126 209q0 -28 38.5 -52t115.5 -24q25 0 76.5 13.5t73.5 23.5q57 29 83.5 84t26.5 84q0 57 -32.5 80.5t-108.5 23.5q-57 0 -122.5 -38t-108 -93 t-42.5 -102z" />
<glyph unicode="&#x26;" horiz-adv-x="1505" d="M82 305q0 72 40 140.5t123.5 140.5t200.5 143q-153 213 -153 285q0 198 186 280q40 19 73.5 25t84.5 6q92 0 178 -37.5t150 -113.5q63 -73 63 -142q0 -13 -0.5 -21.5t-1.5 -19.5q0 -52 -27 -99t-66.5 -84.5t-129.5 -113.5q88 -132 154 -239t104 -174q24 10 31.5 19.5 t7.5 35.5q0 38 -5.5 61t-15.5 52.5t-10 42.5q0 56 46.5 93.5t139.5 37.5q38 0 81 -31.5t72.5 -80t29.5 -93.5q0 -83 -287 -299q51 -78 76.5 -127t25.5 -82q0 -38 -34.5 -76.5t-69.5 -38.5q-28 0 -79 55.5t-136 172.5q-139 -33 -258 -33q-286 0 -440 85t-154 230zM365 350 q0 -18 74 -64t100 -46q5 0 36 6t50 6q60 0 114 -25q18 -8 33 -8q14 0 14 10q0 71 -69 105q-38 18 -60.5 47t-48.5 88.5t-30 67.5q-40 -28 -99.5 -59.5t-77.5 -45t-26 -41.5q-10 -40 -10 -41zM559 1067q0 -26 21.5 -65t81.5 -128q55 32 80.5 61.5t25.5 70.5q0 40 -25 82 t-63 42q-52 0 -86.5 -17t-34.5 -46z" />
<glyph unicode="'" horiz-adv-x="305" d="M27 1010q0 248 24 288t75.5 67.5t113.5 27.5q16 0 19 -3.5t7 -21.5q3 -5 6.5 -21t3.5 -51q0 -87 -63 -540q-10 -70 -44.5 -109t-78.5 -39q-30 0 -43 38t-16.5 114t-3.5 250z" />
<glyph unicode="(" horiz-adv-x="727" d="M55 510q0 144 60.5 326t166 351t228.5 271q39 32 68 46t77 14q16 0 39.5 -19.5t30.5 -40.5q2 -16 2 -45q0 -39 -14 -59t-47 -47q-64 -52 -140.5 -150.5t-146 -222t-110 -237.5t-40.5 -199q0 -63 40.5 -170t107.5 -227.5t142 -220t147 -159.5q35 -29 49 -48t14 -58 q0 -29 -4 -45q-7 -19 -30.5 -39t-39.5 -20q-46 0 -72.5 12.5t-70.5 46.5q-126 103 -231.5 274t-165.5 353t-60 313z" />
<glyph unicode=")" horiz-adv-x="727" d="M0 -385q0 40 14 58.5t49 47.5q75 61 151 164t140 219.5t104 224t40 169.5q0 115 -70 278t-175 313.5t-190 217.5q-35 29 -49 47.5t-14 58.5q0 29 4 45q7 21 31 40.5t39 19.5q49 0 77.5 -14t65.5 -46q127 -105 231.5 -273.5t165 -351.5t60.5 -323q0 -131 -60 -313 t-165.5 -353t-231.5 -274q-39 -31 -67.5 -45t-75.5 -14q-14 0 -38.5 20t-31.5 39q-4 16 -4 45z" />
<glyph unicode="*" horiz-adv-x="858" d="M27 979q0 16 33 46t69 34q37 5 77 9.5t66 8.5q-88 103 -88 137q0 117 56 117t85 -31t107 -137q36 100 67.5 138t98.5 38q27 0 41 -26t14 -64q0 -30 -16 -68.5t-47 -103.5q120 -10 180.5 -32t60.5 -68q0 -24 -56.5 -33t-199.5 -22q48 -98 63 -137.5t15 -100.5 q0 -16 -9.5 -35.5t-18.5 -19.5q-25 0 -48 22.5t-61 76t-67 93.5q-57 -82 -82 -113.5t-56 -55t-65 -23.5q-29 0 -29 22q0 33 11.5 69.5t31 75.5t53.5 109q-98 -24 -155 -24q-61 0 -96 34t-35 64z" />
<glyph unicode="," horiz-adv-x="424" d="M41 -86q3 33 18 131.5t45 247.5q26 119 33.5 146t25.5 52.5t56 51.5q36 24 59.5 33.5t67.5 9.5q25 0 31 -21t6 -71q0 -23 -8.5 -52.5t-36 -113t-51.5 -167t-51 -190.5q-11 -44 -24 -61t-44 -43q-18 -15 -35 -19t-57 -4q-13 0 -24 21t-11 49z" />
<glyph unicode="-" horiz-adv-x="942" d="M41 494q0 15 30.5 44.5t75.5 39.5q32 8 115.5 17t163.5 9q240 0 350.5 -25t110.5 -87q0 -14 -45 -31q-35 -13 -86.5 -18t-128 -9t-174.5 -10q-72 -5 -158 -19t-117 -14q-63 0 -100 36t-37 67z" />
<glyph unicode="." horiz-adv-x="569" d="M41 106q0 44 44 99t123 93t179 38q23 0 56.5 -24.5t59 -71t25.5 -109.5q0 -39 -35.5 -77.5t-95.5 -63.5t-125 -25q-66 0 -118 16t-74 39q-12 15 -25.5 46t-13.5 40z" />
<glyph unicode="/" horiz-adv-x="952" d="M55 78q0 27 36.5 107t121.5 229.5t204.5 339t264.5 405.5q80 121 126.5 169t102.5 48q29 0 29 -24q0 -29 -10 -60t-29.5 -69t-47 -83t-60.5 -100q-77 -128 -181 -303t-167 -285t-102 -183t-54 -109q-42 -102 -73 -140t-103 -38q-58 0 -58 96z" />
<glyph unicode="0" horiz-adv-x="1798" d="M61 434q0 109 28 194.5t83 150t137 108.5q31 14 43 24.5t19 40.5q18 76 87 137.5t180 96.5t251 35q123 0 245.5 -24t224.5 -64.5t165 -85.5q70 -50 120.5 -122t74.5 -146t24 -144q0 -28 -14 -83.5t-38.5 -109.5t-52.5 -90q-33 -44 -110.5 -111t-171 -126.5t-172.5 -83.5 q-169 -54 -537 -54q-91 0 -183 26.5t-162.5 65t-115.5 83.5q-54 55 -89.5 137.5t-35.5 144.5zM360 553q0 -49 6.5 -77t31 -55t79.5 -67q66 -44 110 -61t156 -17q65 0 154 9q167 15 280 43t166 71q42 34 68.5 81t26.5 71q0 47 -9.5 88.5t-27.5 79.5t-42.5 68t-49.5 47 q-33 25 -139 64t-218.5 68t-169.5 29q-23 0 -63 -8t-66 -18q-23 -10 -41.5 -26t-33.5 -34.5t-29 -34.5q-22 -23 -79.5 -68.5t-68.5 -60.5q-10 -31 -25.5 -90.5t-15.5 -101.5z" />
<glyph unicode="1" horiz-adv-x="614" d="M106 150q0 31 6.5 115t24 223.5t53.5 336.5q35 187 68.5 310t60.5 163q28 40 71.5 61t66.5 21q75 0 75 -118q0 -37 -7 -89.5t-15.5 -104t-20 -132t-22.5 -170.5q-15 -136 -24 -260.5t-12 -184.5t-3 -88q0 -15 2 -38t2 -39q0 -60 -24 -93q-19 -29 -74.5 -52t-114.5 -23 q-25 0 -69 41.5t-44 120.5z" />
<glyph unicode="2" horiz-adv-x="1577" d="M61 141q0 73 111 166.5t346 229.5q291 168 435.5 273t144.5 144q0 18 -23 30.5t-63 12.5q-27 0 -108.5 -13.5t-182.5 -43.5q-34 -9 -77.5 -25t-64.5 -23t-34 -7q-35 0 -55.5 17.5t-20.5 43.5q0 37 16 65.5t52 57.5t122 82q63 38 159 68.5t193.5 45.5t178.5 15 q108 0 170 -14t92.5 -54t30.5 -118q0 -65 -25 -124t-110 -147q-72 -74 -171 -154.5t-187 -140.5t-156 -98q-80 -41 -80 -61q0 -9 59 -9q198 0 349 11.5t204 19.5q26 0 45 -22.5t19 -46.5q0 -75 -32.5 -133t-86.5 -76q-25 -9 -73.5 -13t-204 -15.5t-328.5 -29.5 q-66 -6 -139.5 -16t-129.5 -18t-101 -13.5t-71 -5.5q-59 0 -105 22t-72 54.5t-26 62.5z" />
<glyph unicode="3" horiz-adv-x="1708" d="M96 471q0 31 25 62.5t74 76.5q36 36 60.5 53t59.5 17q39 0 49.5 -17t10.5 -51q0 -6 -7.5 -41.5t-7.5 -52.5q0 -54 52 -111t145.5 -95t214.5 -38q110 0 203.5 18.5t170.5 48.5t117 58.5t40 44.5q0 31 -14.5 49.5t-53.5 57.5q-26 30 -43.5 50t-42.5 42t-54.5 34.5 t-64.5 12.5q-56 0 -100 -6.5t-96.5 -16.5t-61.5 -10t-43 13t-43 22q-11 12 -20 36.5t-9 41.5q0 33 16 55t56 54q91 74 154 108q51 28 51 47q0 15 -26.5 22t-47.5 7q-1 0 -62 -12.5t-136 -20.5q-202 -20 -218 -20q-120 0 -120 116q0 59 70.5 96t211.5 60q187 32 399.5 49 t419.5 17q68 0 108.5 -7.5t60.5 -30.5t20 -67q0 -24 -33 -57q-36 -35 -58.5 -41.5t-70.5 -11.5q-85 -12 -155 -75t-70 -83q0 -25 5.5 -35.5t31.5 -28.5q171 -103 256.5 -207t85.5 -221q0 -129 -100.5 -241t-258.5 -172q-81 -30 -222.5 -55t-274.5 -25q-163 0 -302 52 t-225.5 134t-105.5 166q-11 57 -15 84.5t-6 44.5z" />
<glyph unicode="4" horiz-adv-x="1108" d="M35 655q0 51 7 84.5t17.5 58t18.5 42.5q4 24 35.5 97t119.5 202q97 143 193 143q16 0 30.5 -12.5t14.5 -30.5q0 -16 -42.5 -120.5t-62.5 -162t-20 -102.5q0 -34 20.5 -46.5t57.5 -12.5q24 4 76.5 15t120.5 34q36 12 47 26t28 54q13 28 26.5 52t22.5 42q18 36 40.5 83 t53 93t76.5 90q28 27 58.5 46.5t38.5 19.5q90 0 90 -88q0 -40 -33 -117t-136.5 -302.5t-193.5 -441.5q-19 -46 -61 -162.5t-63.5 -160t-60.5 -69t-103 -25.5q-111 0 -111 129q0 46 13 91t40 106t38 89t11 58q0 55 -36 55q-3 0 -56 -6t-100 -6q-107 0 -161 54.5t-54 100.5z " />
<glyph unicode="5" horiz-adv-x="1466" d="M82 803q0 8 13.5 49t25.5 63q14 25 14 62q0 43 15 72.5t63 60.5q71 49 250 112.5t375 98.5q129 23 221 38t144 23t71 11q34 0 71 -13t54 -30q16 -16 34.5 -64t18.5 -80q0 -54 -45.5 -106.5t-85.5 -52.5q-51 0 -87.5 10t-70 25.5t-37.5 15.5q-44 0 -174.5 -9.5 t-302.5 -35.5q-93 -13 -147 -26.5t-76.5 -26t-26 -23.5t-6.5 -23q0 -1 -6 -8.5t-6 -13.5q0 -28 26.5 -37.5t75.5 -11.5t136 -21.5t169 -50.5q128 -48 217 -109.5t135 -122t46 -106.5q0 -57 -9.5 -106.5t-41.5 -106.5q-38 -63 -107.5 -114t-164 -90t-201.5 -60t-205 -21 q-83 0 -138 16t-129 62q-106 70 -106 142q0 26 13 48.5t33.5 39t45 31t62.5 36.5q25 15 59 15q19 0 75.5 -13.5t108.5 -32.5t72 -38q22 -17 53 -17q16 0 42 4t42 6q64 9 108 21.5t64.5 31.5t20.5 50q0 25 -35.5 58.5t-114.5 90.5q-40 28 -76.5 41.5t-118 32.5t-102.5 25 q-67 16 -105.5 22t-82.5 11t-53 8q-53 15 -83 58.5t-30 78.5z" />
<glyph unicode="6" horiz-adv-x="1645" d="M82 313q0 101 38.5 196t125.5 243q85 144 147.5 238.5t115.5 158.5t93 90q41 27 131.5 59.5t192 55t178.5 22.5q207 0 297 -39t90 -153q0 -29 -36.5 -57.5t-72.5 -28.5q-9 0 -66.5 6t-125 10t-162.5 4q-89 0 -175.5 -19.5t-148 -42t-65.5 -26.5q-14 -11 -60.5 -96 t-88 -171t-41.5 -101q0 -27 4 -34t22 -7q4 0 71.5 19t168.5 44.5t207 44.5q143 27 252 39t151 14q73 0 127 -28t84.5 -83.5t30.5 -133.5q0 -91 -24 -145.5t-77 -112.5q-83 -93 -169 -141.5t-212 -86.5q-99 -29 -186 -44t-180 -15q-198 0 -343 47.5t-219.5 122t-74.5 151.5z M463 326q0 -20 104 -31q16 -1 67 -9t93.5 -13t95.5 -5q102 0 262 29q80 14 100 37.5t32 77.5q2 11 4.5 21t4 18t1.5 16q0 43 -113 43q-3 0 -36 -3t-107.5 -11.5t-153.5 -22.5t-147 -33q-70 -16 -113.5 -26t-68.5 -29.5t-25 -58.5z" />
<glyph unicode="7" horiz-adv-x="1389" d="M61 -199q0 67 64 160q115 174 211 283q72 79 72 108q0 52 -29.5 68t-89.5 20q-75 4 -126.5 29t-51.5 57q0 26 8 36.5t33 35.5q39 36 69.5 54.5t87 30t154.5 11.5q44 0 105.5 -5t68.5 -5q46 0 70.5 21.5t73 93.5t100.5 137q67 84 114.5 160t65.5 110q0 11 -20 21t-46 10 q8 0 -60 -9.5t-157 -15.5q-265 -15 -432 -41q-56 -8 -103 -19t-46 -11q-59 0 -89 19t-30 38q0 51 48 99t128 85q32 16 163.5 48t316.5 57.5t380 25.5q59 0 115 -11.5t71 -20.5q33 -20 53.5 -67.5t20.5 -90.5q0 -54 -34 -116.5t-119 -186.5q-133 -190 -191 -264 q-55 -70 -55 -109q0 -27 4 -65t4 -43q0 -40 -49 -100.5t-121 -71.5q-52 -8 -74.5 -16.5t-49 -35.5t-87.5 -104q-44 -55 -103 -130.5t-89 -121.5t-37 -76q-1 -7 -4 -26t-12 -40t-31 -44q-30 -31 -68.5 -52.5t-62.5 -21.5q-62 0 -98 27t-36 75z" />
<glyph unicode="8" horiz-adv-x="1755" d="M68 336q0 44 9 74t27 52.5t58 57.5q33 32 78 51q10 4 16.5 6.5t11 5.5t4.5 11q0 4 -14 18q-70 73 -92.5 110t-22.5 103q0 75 22.5 115.5t90.5 93.5q110 88 241.5 150.5t278.5 95.5t297 33q153 0 274.5 -37t198.5 -105q41 -35 74 -86t50.5 -102.5t17.5 -95.5 q0 -90 -26 -139t-103 -86q-52 -27 -52 -35q0 -12 8 -19t24 -12t28 -10q42 -19 74 -72t32 -104q0 -64 -65.5 -137.5t-190.5 -138t-297.5 -103.5t-376.5 -39q-166 0 -293 27t-213 75.5t-127.5 110.5t-41.5 131zM422 862q0 -39 45 -84t115 -69q78 -27 243 -27q215 0 320 27 q78 20 135.5 53t89 73.5t31.5 82.5q0 66 -68 117.5t-194 51.5q-125 0 -225.5 -14t-179.5 -37.5t-134.5 -46.5t-93.5 -41q-84 -36 -84 -86zM451 385q0 -29 24 -63t64 -56q74 -39 280 -39q78 0 197.5 21.5t191.5 48.5q60 24 96.5 57t36.5 58q0 50 -41 68t-137 18 q-712 0 -712 -113z" />
<glyph unicode="9" horiz-adv-x="1757" d="M68 330q0 5 9 27.5t17 33.5q13 17 64 39.5t80 22.5q39 0 65 -13t57 -39q80 -60 151.5 -92t154.5 -43.5t211 -11.5q122 0 226 19t175 43t86 36q21 17 37 57.5t16 79.5q0 58 -22 58q-3 0 -53 -14t-135.5 -33.5t-187 -32t-210.5 -12.5q-84 0 -163.5 7.5t-148.5 25.5 t-120.5 43.5t-102.5 64.5q-66 54 -98.5 113t-32.5 129q0 103 129 202q164 127 377 199t418 72q212 0 349.5 -56.5t204.5 -176t67 -310.5q0 -121 -24 -231t-67 -196t-98 -138q-95 -89 -304 -153t-435 -64q-88 0 -169 13t-157.5 35.5t-134.5 49t-98 55.5q-57 43 -95 101 t-38 90zM418 854q0 -41 30.5 -76.5t93.5 -63.5t151.5 -42.5t189.5 -14.5q147 0 269 31t183 72q84 56 84 145q0 64 -66 125.5t-165 61.5q-163 0 -282 -24t-273 -67q-111 -30 -163 -62.5t-52 -84.5z" />
<glyph unicode=":" horiz-adv-x="719" d="M41 106q0 44 44 99t123 93t179 38q23 0 56.5 -24.5t59 -71t25.5 -109.5q0 -39 -35.5 -77.5t-95.5 -63.5t-125 -25q-66 0 -118 16t-74 39q-12 15 -25.5 46t-13.5 40zM203 989q0 44 44 99t123 93t179 38q22 0 57 -25t60.5 -71.5t25.5 -108.5q0 -59 -79.5 -112.5 t-178.5 -53.5q-68 0 -118.5 16t-73.5 39q-12 15 -25.5 46t-13.5 40z" />
<glyph unicode=";" horiz-adv-x="719" d="M55 -86q3 33 18.5 131.5t45.5 247.5q26 119 33.5 146t24.5 52t56 52q35 24 58.5 33.5t68.5 9.5q25 0 31 -21t6 -71q0 -23 -8.5 -52.5t-31 -99.5t-51.5 -167t-56 -204q-11 -44 -24 -61t-44 -43q-19 -15 -35 -19t-57 -4q-13 0 -24 21t-11 49zM217 989q0 44 44 99t123 93 t179 38q22 0 57.5 -25.5t61 -73t25.5 -106.5t-79.5 -112.5t-178.5 -53.5q-69 0 -118.5 16t-74.5 39q-12 15 -25.5 46t-13.5 40z" />
<glyph unicode="?" horiz-adv-x="1339" d="M55 1081q0 26 24.5 65.5t67.5 77.5t101 72q20 13 57 38.5t97.5 51.5t150.5 44t207 18q173 0 294.5 -30.5t182.5 -84t61 -125.5q0 -62 -57.5 -131.5t-163.5 -128.5q-40 -22 -59 -32t-64.5 -33.5t-54.5 -28.5q-100 -58 -149 -82q-42 -19 -64 -39.5t-22 -50.5 q0 -10 24.5 -57t24.5 -74q0 -29 -8 -38.5t-41 -31.5q-12 -8 -19 -14t-14.5 -10t-18.5 -4q-69 0 -151 84q-37 38 -46 62.5t-9 72.5q0 88 145 184q274 179 356 207q3 1 20 5.5t26 9t19.5 14t21 24.5t10.5 23q0 20 -5 30.5t-28 24.5q-75 41 -264 41q-97 0 -189.5 -17 t-111.5 -26q-16 -6 -21.5 -14.5t-5.5 -24.5q0 -43 11 -70t18 -36q0 -14 -13.5 -40.5t-29.5 -41.5q-34 -27 -127 -27q-54 0 -118.5 55.5t-64.5 87.5zM369 59q0 46 40 100t103.5 92.5t130.5 41.5q72 0 106.5 -25t34.5 -80q0 -28 -26.5 -83.5t-83.5 -84.5q-25 -12 -75.5 -24 t-76.5 -12q-76 0 -114.5 23.5t-38.5 51.5z" />
<glyph unicode="A" d="M-27 -63q0 42 26 104.5t75.5 145.5t128.5 206q72 113 138 201.5t111 142t77.5 88t41.5 43.5q60 74 93 101q20 16 33.5 26.5t22.5 21t9 19.5q0 20 -28.5 64t-34.5 57q-8 20 -13.5 26t-21.5 13q-18 8 -22.5 18.5t-4.5 32.5q0 45 64 75t102 30q50 0 94 -32.5t90 -95.5 t106 -168.5t157 -281.5q62 -115 180.5 -306.5t148 -243t29.5 -85.5q0 -60 -45 -99.5t-113 -39.5q-76 0 -141 78q-43 55 -57 70.5t-37 15.5q-31 0 -119.5 -18.5t-135.5 -26.5t-116 -8q-64 0 -117.5 6.5t-88 14t-38.5 7.5q-167 0 -233.5 -8.5t-82 -32t-18.5 -90.5 q-1 -47 -24.5 -87.5t-59.5 -62.5t-73 -22q-58 0 -80.5 24.5t-22.5 76.5zM403 367q0 -17 3.5 -26t15.5 -9h-2q0 2 80 16q92 16 192 17q1 0 73 -9.5t130 -9.5q164 0 164 21q0 25 -4 35.5t-17 31.5q-9 18 -36 82t-50 115t-49 96q-51 95 -72.5 129.5t-37.5 34.5q-6 0 -24 -14 t-41.5 -40t-47.5 -65q-16 -26 -56.5 -89t-97.5 -140q-21 -29 -59 -72.5t-51 -63.5t-13 -40z" />
<glyph unicode="B" horiz-adv-x="1561" d="M70 1036q0 52 62 103t175 88q140 47 279 78.5t280.5 47t282.5 15.5q62 0 113 -17t80.5 -49.5t29.5 -76.5q0 -46 -33.5 -94.5t-101.5 -110.5q-55 -48 -75 -64t-60 -32q-44 -18 -64 -33.5t-20 -46.5q0 -12 26 -14.5t91 -2.5h49q69 -3 140 -26.5t120 -61.5q35 -25 48 -51.5 t13 -69.5q0 -52 -58.5 -134.5t-161 -168.5t-226.5 -147q-102 -51 -231 -91t-256 -60.5t-224 -20.5t-144.5 27.5t-47.5 91.5q0 8 2 19t2 18v-2q-2 0 -17 155q-4 54 -7 92.5t-7 59.5t-14 35l-12 15q-8 10 -12.5 21t-4.5 27t15.5 55.5t15.5 81.5q0 76 -0.5 111t-1.5 74v49 q0 17 -22.5 53.5t-22.5 56.5zM313 889q0 -94 5 -115.5t32 -21.5q25 0 167 58.5t310 154.5q179 102 217.5 124.5t38.5 36.5q0 24 -16 31.5t-53 7.5q-183 0 -365.5 -25t-273.5 -50q-36 -10 -49 -46t-13 -155zM340 432q0 -28 18 -149q11 -71 25.5 -93t54.5 -22q31 0 130.5 14.5 t217.5 44.5q95 25 178.5 66t152 92.5t102.5 94.5t34 75q0 26 -29 50t-81 39t-119 15q-132 0 -373 -53q-139 -31 -188.5 -45.5t-86 -45.5t-36.5 -83z" />
<glyph unicode="C" horiz-adv-x="1571" d="M55 387q0 72 8 115q26 133 138.5 277.5t280 270t354 200.5t348.5 75q99 0 153 -39.5t54 -116.5q0 -73 -43 -115t-101 -42q-8 0 -84 11t-139 11q-168 0 -304.5 -45.5t-236.5 -125.5t-152 -177t-52 -197q0 -95 99.5 -152.5t278.5 -57.5q168 0 285 32t227 111 q108 75 144 139q14 27 36 42t31 15q39 0 71 -21t32 -62q0 -12 -14 -51t-35 -76q-31 -54 -123 -134.5t-199 -132.5q-66 -31 -155 -56t-191 -40.5t-199 -15.5q-217 0 -321 53q-87 44 -139 124.5t-52 180.5z" />
<glyph unicode="D" horiz-adv-x="1769" d="M68 1133q0 33 39 62.5t110.5 51.5t172 34.5t233.5 12.5q163 0 317 -32.5t284 -85.5t229.5 -117.5t154.5 -128.5q112 -132 112 -322q0 -158 -235 -308.5t-688 -262.5q-164 -39 -297 -39q-172 0 -236 20q-70 23 -118 71t-48 93q0 23 32 58t69 51q39 17 49 32t10 74 q0 -8 -6 118t-6 257q0 42 5 138.5t5 136.5q0 26 -8.5 33t-36.5 7q-8 0 -38 -6t-48 -6q-57 0 -57 58zM424 743q0 -216 16.5 -349t38.5 -161q18 -22 53 -22q73 0 141.5 13t119 29.5t151.5 51.5q114 40 207 80t140 64.5t52 29.5q26 24 51 75.5t25 100.5q0 40 -11.5 56 t-45.5 41.5t-62 60.5q-73 89 -417 172q-137 34 -243.5 50.5t-152.5 21.5q-20 0 -35 -18.5t-20 -45.5q-2 -29 -5 -97t-3 -153z" />
<glyph unicode="E" horiz-adv-x="1624" d="M68 106q0 45 47.5 86t122.5 68q26 11 35.5 17.5t11.5 15t4 37.5q1 10 4.5 24t3.5 29q0 62 -11.5 85t-41.5 32q-46 16 -61 27t-15 48q0 18 30 58.5t74 68.5q28 20 37.5 31t9.5 37q0 96 -3 133.5t-15 56t-43 29.5q-20 8 -30.5 15.5t-10.5 23.5q0 25 42 67.5t73 59.5 q23 14 179.5 48.5t387.5 68.5q90 14 180 30.5t159.5 30t114 21.5t62.5 8q113 0 113 -105q0 -42 -14 -63t-52 -51q-82 -64 -139 -64q-34 0 -68.5 5.5t-66.5 13t-41 8.5q-20 0 -123 -10q-7 0 -29.5 -1t-62.5 -3t-100 -7t-115 -12q-133 -16 -178 -28.5t-56.5 -38.5t-11.5 -97 q0 -93 9.5 -136.5t33.5 -43.5q-6 0 67 14.5t156 24.5q365 47 441 47q84 0 140 -30.5t56 -77.5q0 -54 -26 -86.5t-79 -48.5t-124 -17q-215 -5 -344 -14.5t-209 -24.5t-100 -33q-14 -12 -22 -36t-13 -56.5t-8 -42.5q-11 -26 -11 -35q0 -17 19 -34t37 -17q2 0 68.5 14t164.5 27 q104 15 247.5 46.5t198.5 42.5t117 11q47 0 86 -25.5t39 -74.5q0 -32 -18.5 -67t-42.5 -52q-18 -11 -59 -15t-106 -11.5t-140 -26.5q-59 -15 -147 -30.5t-182.5 -31.5t-211.5 -42q-29 -6 -90.5 -21.5t-65.5 -15.5q-56 0 -194 33q-46 10 -68 28.5t-22 54.5z" />
<glyph unicode="F" horiz-adv-x="1272" d="M68 1071q0 32 36 62q170 137 414 212.5t524 75.5q40 0 84.5 -3.5t53.5 -6.5q33 -13 58.5 -47.5t25.5 -58.5q0 -52 -24 -80t-73 -60q-45 -29 -76.5 -38t-74.5 -9h-53q-20 0 -46.5 8.5t-55.5 19.5t-56.5 18t-59.5 7q-52 0 -311 -57q-45 -10 -55.5 -27.5t-13.5 -64.5 q0 -15 -3.5 -31t-8.5 -36.5t-8 -37t-3 -32.5q0 -23 10 -52.5t17 -33.5q11 -3 32 -7t19 -4q10 0 58 11.5t89 17.5q234 35 299 35q16 0 49.5 -12.5t53.5 -28.5q24 -16 30.5 -33t6.5 -49q0 -39 -9.5 -61t-42.5 -45q-61 -43 -145 -43q-22 1 -42 1.5t-54 0.5q-137 0 -211.5 -10 t-109 -35.5t-34.5 -75.5q0 -1 21.5 -124t21.5 -196q0 -37 -5 -53.5t-29.5 -47t-43.5 -42.5t-59 -12q-19 0 -46.5 25t-43.5 59q-17 40 -23.5 100.5t-12 169t-13.5 166.5q-5 35 -15 76.5t-10 56.5q0 21 13 51t18.5 48t5.5 65q0 92 -7.5 140.5t-29.5 70.5q-4 4 -13.5 12.5 t-14 17.5t-4.5 27z" />
<glyph unicode="G" horiz-adv-x="1569" d="M51 414q0 186 102.5 362t279 313.5t404 217t461.5 79.5q136 0 204.5 -27.5t68.5 -80.5q0 -37 -8 -55q-11 -20 -43 -43t-47 -23q-8 0 -59 5t-85 5q-118 0 -228 -15t-223 -47t-202.5 -74t-155.5 -95q-90 -71 -141 -149t-70.5 -161.5t-19.5 -181.5q0 -39 4 -63.5t19 -47.5 t40 -46q81 -74 144 -74q137 0 255.5 32.5t211 81t143.5 89.5t51 55q0 41 -61 41q-189 0 -301.5 -7.5t-149.5 -12.5q-115 0 -115 69q0 40 31 68.5t107 56.5q129 50 234 75t218 25q108 0 161.5 -21.5t53.5 -80.5q0 -45 -10 -81.5t-22.5 -64t-12.5 -30.5q0 -7 5 -28t5 -36 q0 -62 -78.5 -142.5t-203 -154.5t-271 -122t-268.5 -48q-94 0 -172 29.5t-136 86t-89 137.5t-31 184z" />
<glyph unicode="H" horiz-adv-x="1401" d="M68 426q0 31 26 57q20 19 39.5 38t29.5 43.5t13 66.5q14 226 25 320.5t46 158.5t111 74q40 0 52 -19t12 -65v-45q0 -48 -8 -145.5t-10.5 -136t-2.5 -103.5q0 -32 10 -40.5t44 -8.5q30 0 168 12t237 12q10 0 28 -2t27 -2q55 0 72 32t17 91q0 122 6.5 192.5t23 112.5 t50.5 62t90 20q39 0 48 -37.5t11 -118.5q1 -44 18.5 -186t24.5 -210.5t8 -160.5q1 -105 8.5 -164t11.5 -79q0 -74 -31.5 -119t-88.5 -45q-56 0 -90 26t-49.5 77t-20.5 134q-5 84 -8 109.5t-19 40.5q-5 5 -63 19t-117 14q-54 0 -108 -5.5t-102 -11.5t-118 -14 q-67 -7 -101 -31.5t-34 -56.5q0 -26 15.5 -63.5t23.5 -64t8 -83.5q0 -44 -18 -80.5t-51.5 -59t-77.5 -22.5q-60 0 -98.5 57.5t-38.5 159.5q0 25 4 69t4 58q0 30 -5 42.5t-24 31.5q-28 34 -28 49z" />
<glyph unicode="I" horiz-adv-x="451" d="M109 233q0 20 4 50t4 49q0 23 -0.5 35.5t-1.5 34.5t-2.5 50t-1.5 54q0 211 17.5 387t29.5 246q12 37 48 58.5t62 21.5q48 0 64 -43.5t16 -196.5q0 -43 -4 -161t-4 -189q0 -36 2 -74t7 -135.5t5 -136.5q0 -46 -0.5 -72t-1.5 -59q1 -11 1.5 -19.5t0.5 -23.5q0 -40 -40 -75 t-83 -38q-53 0 -66 9.5t-24 37.5q-8 6 -20 46.5t-12 143.5z" />
<glyph unicode="J" horiz-adv-x="1204" d="M27 283q0 28 55.5 65t71.5 37q21 0 36.5 -6t27 -15.5t22.5 -17.5q60 -40 200.5 -84.5t251.5 -44.5q94 0 136.5 6t64.5 32.5t22 88.5q0 12 -19 83t-32 146q0 5 -4.5 45t-9.5 73.5t-18 98.5t-33 140q-38 149 -56 239.5t-18 118.5q0 50 73 89.5t99 39.5q35 0 51.5 -12.5 t38.5 -65.5q17 -38 46 -169t52 -334.5t23 -432.5q0 -89 -45 -179t-98 -138q-111 -96 -308 -96q-22 1 -40 1.5t-44 0.5q-21 0 -53 -2t-53 -2q-59 0 -110.5 9t-100 29t-98.5 50q-44 26 -74 54.5t-43.5 65t-13.5 87.5z" />
<glyph unicode="K" horiz-adv-x="1589" d="M96 1096q0 26 5.5 44t25.5 38q27 28 54 46.5t38 18.5q36 0 53.5 -26t18.5 -84q2 -43 4.5 -76.5t5.5 -57.5t5 -35.5t5 -35.5q7 -50 19.5 -70t44.5 -20q13 0 22 4.5t19.5 14t19 17.5t77.5 48.5t202.5 107.5t255.5 121q166 74 300 108.5t169 34.5q69 0 99 -27t30 -91 q0 -39 -13 -63t-47 -50q-43 -34 -83.5 -45t-85 -12t-97.5 -2q-109 -8 -233 -54t-218 -100t-94 -68q0 -44 144 -116q193 -93 292 -175t99 -147q0 -51 -8 -82q-17 -47 -64 -84t-86 -37q-47 0 -73 17.5t-67.5 69.5t-64.5 73q-43 40 -77.5 63.5t-54.5 32t-27 11.5 q-38 20 -82 55.5t-83 69.5t-70 54.5t-54 20.5t-41.5 -23.5t-18.5 -58.5q0 -44 12.5 -110.5t18.5 -75.5q13 -5 33 -49t20 -170q0 -40 -43 -84.5t-127 -44.5q-31 0 -56 51.5t-46.5 160t-38.5 249.5q-39 316 -39 643z" />
<glyph unicode="L" horiz-adv-x="1223" d="M98 471q0 152 8.5 276t19 217t11.5 97q30 135 152 135q13 0 27 -15.5t20 -33.5q7 -20 14.5 -121.5t7.5 -255.5q0 -102 -4 -161.5t-10.5 -156t-7.5 -137.5q0 -35 20 -54t54 -19q64 0 252.5 39.5t265 53t182.5 13.5q25 0 52.5 -17t27.5 -50q0 -34 -16 -71t-37 -58 q-24 -24 -75 -38.5t-124.5 -25.5t-213.5 -30.5t-220 -34.5q-136 -27 -228 -27q-107 0 -141 49q-17 24 -24.5 77.5t-10 127.5t-2.5 221z" />
<glyph unicode="M" horiz-adv-x="1964" d="M-27 2q0 52 31 137.5t94.5 212t147.5 279.5q77 142 122.5 218.5t94.5 139.5q18 27 18 33q0 18 -7 62t-7 69q0 24 27.5 56t66.5 53.5t70 21.5q39 0 60 -18.5t40 -65t72 -196.5q32 -87 54.5 -164.5t38 -135t25.5 -82t19 -24.5q15 0 37 68q76 228 176 403q43 71 98.5 105 t112.5 34q51 0 93.5 -39t75.5 -90.5t159 -261.5q78 -132 133 -251.5t80.5 -200t25.5 -103.5q0 -32 -24 -67.5t-56.5 -58.5t-54.5 -23q-67 0 -92 18q-13 9 -87.5 160.5t-111.5 222.5q-76 150 -140 236t-87 86q-13 0 -61 -119q-35 -85 -105.5 -224.5t-99.5 -224.5 q-20 -62 -31.5 -92t-34.5 -57q-22 -27 -55 -46.5t-55 -19.5q-53 0 -80.5 27t-41 69t-40.5 162t-49 195q-13 41 -35.5 128t-31 110.5t-21.5 23.5q-19 0 -140 -238q-183 -353 -231 -479q-16 -43 -43 -66.5t-100 -23.5q-24 0 -37 13.5t-13 27.5z" />
<glyph unicode="N" horiz-adv-x="1462" d="M68 854q0 22 46 60t79 44q20 5 71 5q20 0 41 -31q36 -52 91 -113t143 -145t163 -150q147 -127 256.5 -206.5t126.5 -79.5q36 0 50 9.5t14 43.5q0 3 -14 110t-21 205q-7 92 -13.5 169t-12 163.5t-5.5 185.5q0 58 6 91.5t31 58.5q20 17 50.5 31t48.5 14q53 0 81 -53 t37 -158q3 -16 10 -70.5t13 -167t6 -272.5q0 -185 -11 -304t-18 -167q-15 -71 -62 -105t-130 -34q-85 0 -235.5 64t-292.5 161.5t-207 181.5q-27 36 -47 55t-37 19q-7 0 -12 -22.5t-9 -69.5t-8 -110t-10 -152q-5 -75 -34.5 -113.5t-94.5 -38.5q-30 0 -45 18.5t-20 63.5 t-5 137q0 141 8 243.5t16.5 167t12.5 85.5q0 33 -28.5 91t-28.5 85z" />
<glyph unicode="O" horiz-adv-x="1608" d="M61 371q0 126 68 247.5t207 249.5q145 135 307 203t387 68q84 0 152 -20t139 -68q62 -40 106.5 -88.5t72.5 -106t40 -120t12 -134.5q0 -55 -24.5 -126.5t-73.5 -134.5t-115 -97q-2 -1 -45 -51.5t-116.5 -100t-212 -85.5t-344.5 -36q-109 0 -197 22.5t-162 70.5t-131 118 q-40 51 -55 90.5t-15 98.5zM299 469q0 -50 65.5 -115t172 -111t227.5 -46q90 0 208.5 36t174.5 72q133 93 133 256q0 84 -48.5 156.5t-141 116t-216.5 43.5q-127 0 -237.5 -32.5t-179.5 -84.5q-75 -58 -96 -101.5t-21 -62.5q-10 -9 -25.5 -39t-15.5 -88z" />
<glyph unicode="P" horiz-adv-x="1214" d="M66 973q0 57 23 96.5t71 77.5q73 58 184.5 114.5t225 97t211.5 63t155 22.5q78 0 128 -11.5t99 -54.5q78 -68 78 -182q0 -65 -40 -132.5t-121 -141t-208 -158.5q-145 -98 -237.5 -150.5t-140.5 -76.5q-77 -37 -94 -46t-22 -22t-5 -49q0 -105 11 -171.5t27.5 -124 t16.5 -71.5q0 -68 -42.5 -112.5t-104.5 -44.5q-36 0 -53 11.5t-29 47.5q-15 46 -26 125t-11 160q1 14 2 29.5t2 28t1.5 18.5t0.5 16q0 30 -33 76q-29 37 -29 67q0 20 4 31t14 24t13 17q14 18 18.5 39.5t4.5 70.5q0 77 13 157q12 73 13 74v-1q0 18 -18 31t-43 16 q-31 4 -45 11.5t-14 27.5zM367 731q0 -29 32 -29t101.5 32t144.5 81q39 25 81.5 57.5t72.5 53.5q124 87 161 120t37 80q0 82 -192 82q-80 0 -144.5 -9t-156.5 -42q-61 -23 -86 -43.5t-31 -51t-6 -106t-4 -139.5q-2 -27 -6 -54.5t-4 -31.5z" />
<glyph unicode="Q" horiz-adv-x="1909" d="M57 453q0 101 68 249q75 163 174 254.5t266 171.5q176 85 336 127.5t338 42.5q152 0 270 -55t183 -151t65 -213q0 -87 -17 -163t-48 -126q-7 -11 -39.5 -58t-32.5 -71q0 -15 10.5 -28t27 -25.5t42.5 -32.5q20 -14 41 -37.5t45 -48.5q38 -34 53.5 -56.5t15.5 -68.5 q0 -73 -40.5 -118.5t-114.5 -45.5q-33 0 -57 9t-44 26t-61 59.5t-57 57.5q-80 80 -131.5 122.5t-73.5 42.5q-7 0 -9.5 -4.5t-5 -14.5t-4.5 -15q-13 -60 -24 -77.5t-70 -74.5q-14 -14 -100 -46.5t-209 -58.5t-254 -26q-149 0 -273.5 54.5t-197 157.5t-72.5 241zM301 559 q0 -80 39.5 -134.5t124.5 -102.5q58 -33 106 -50t94 -22.5t107 -5.5q79 0 179 26t173.5 58.5t73.5 44.5q0 33 -133 121q-25 17 -25 36q0 37 29.5 84.5t77.5 47.5q71 0 120.5 -15.5t90 -36t49.5 -20.5q23 0 31.5 5t19.5 26q45 88 45 118q0 144 -111.5 230t-312.5 86 q-168 0 -309 -35.5t-247 -102t-164 -157.5t-58 -201z" />
<glyph unicode="R" horiz-adv-x="1677" d="M82 932q0 35 55 92t157 110t259 89.5t354 36.5q182 0 302.5 -25.5t222.5 -108.5q88 -72 88 -147q0 -99 -63 -192.5t-172.5 -167.5t-240.5 -113q-85 -25 -120 -39.5t-35 -48.5q0 -31 31 -51q112 -78 219 -117t188 -39q65 0 107 31q20 15 36 27.5t34 22t36 9.5q38 0 60 -31 t22 -86q0 -54 -52 -97t-137.5 -66t-187.5 -23q-85 0 -196.5 31.5t-217.5 90t-180 132.5q-34 36 -58 62t-51 37t-79 11q-44 0 -58 -15.5t-14 -43.5q1 -11 1.5 -20t0.5 -23q0 -114 -47 -188t-121 -74q-13 0 -38.5 13t-39.5 26q-45 46 -45 199v221q0 131 7 223.5t12 120.5 q0 18 -14 49.5t-19.5 45t-5.5 36.5zM348 713q0 -28 13.5 -65.5t23.5 -47.5q25 -25 131 -25q195 0 360 40t271 106q78 49 106.5 79t28.5 64q0 67 -49 111q-25 22 -94.5 44.5t-174.5 38t-229 15.5q-40 0 -95 -6.5t-71 -7.5q-68 -3 -110 -19.5t-66.5 -54.5t-34.5 -103t-10 -169 z" />
<glyph unicode="S" horiz-adv-x="1493" d="M68 233q0 79 49 130t102 51q36 0 53.5 -12.5t30.5 -41.5q30 -62 78.5 -90t146.5 -28q133 0 224 16.5t152 42t98 53t53 39.5q41 32 55 46t14 36q0 29 -8 41q-8 10 -50 22.5t-89 12.5q-17 0 -69 -9.5t-93 -14.5t-96 -5t-116 5t-110.5 11.5t-58.5 6.5q-14 0 -20 -0.5 t-14.5 -1.5t-19 -2t-22.5 -2q-134 0 -209 66.5t-75 148.5q0 137 148.5 281t349 238.5t327.5 94.5q103 0 174.5 -31t89.5 -77q6 -17 6 -48q0 -67 -44.5 -109t-127.5 -42q-55 0 -104 33q-32 21 -45.5 26.5t-54.5 5.5q-42 0 -80.5 -14.5t-85.5 -40.5q-133 -70 -186 -100.5 t-91.5 -66t-38.5 -70.5q0 -28 61 -52t146 -24q114 0 220.5 6t196 14t124.5 8q90 0 172.5 -15.5t99.5 -25.5q52 -26 72 -73.5t20 -122.5q0 -95 -72.5 -195t-201 -182t-296.5 -131t-351 -49q-126 0 -226.5 33t-154 89t-53.5 119z" />
<glyph unicode="T" horiz-adv-x="1403" d="M27 1114q0 14 14.5 38t34.5 38q35 25 88.5 36.5t122.5 16.5t192 12t183 13q150 15 245 27t248 35.5t172 23.5q58 0 83.5 -18.5t25.5 -63.5q0 -23 -22 -64t-50 -63q-30 -24 -127 -50.5t-238 -43.5q-111 -14 -149.5 -30t-38.5 -69q0 -39 10 -201t10 -282q0 -27 -2 -61.5 t-4 -65.5t-4 -66q-2 -113 -10.5 -163t-48.5 -82q-14 -11 -42 -23t-38 -12q-98 0 -98 139q0 24 5 96t9 150.5t4 179.5q0 233 -5.5 324t-31.5 110q-4 4 -47 7.5t-117.5 6.5t-181.5 3q-192 0 -192 102z" />
<glyph unicode="U" horiz-adv-x="1487" d="M68 238q0 61 25 179.5t67 221.5q35 84 64.5 139.5t52.5 91.5t30 43q48 48 82 48q26 0 31.5 -8.5t5.5 -30.5q0 -7 -23 -55.5t-47 -110.5t-41.5 -151t-17.5 -197q0 -31 10 -66.5t21 -48.5q20 -25 123 -57.5t223 -32.5q55 0 122.5 13.5t127.5 33t84 33.5q42 23 93.5 87 t51.5 111q0 58 -96 477q-35 144 -35 152q0 24 21.5 48.5t53.5 45t58.5 32t34.5 11.5q32 0 82 -38t69 -72q7 -11 20 -52.5t21.5 -96t8.5 -114.5q0 -154 -11.5 -278t-19.5 -156q-13 -55 -32.5 -87t-39.5 -51.5t-51.5 -43t-42.5 -37.5q-5 -9 -21 -33.5t-62.5 -53t-135.5 -56.5 q-112 -34 -251 -56t-226 -22q-94 0 -192.5 28.5t-145.5 59.5q-92 65 -92 150z" />
<glyph unicode="V" horiz-adv-x="1319" d="M35 952q0 37 52.5 74t90.5 37q30 0 78.5 -41t97.5 -107q21 -30 73 -111.5t134 -230.5q37 -68 67.5 -124.5t55 -86.5t47.5 -30q15 0 27.5 14t32.5 49t39 73l59 118q49 96 86 189.5t82.5 213.5t75.5 180t69 95q29 25 58.5 40t42.5 15q43 0 43 -47q0 -40 -33.5 -132.5 t-114.5 -295.5q-48 -121 -104 -234.5t-104.5 -197.5t-93 -150.5t-77.5 -116.5q-28 -43 -55 -75.5t-51.5 -49t-50.5 -16.5q-35 0 -62.5 24.5t-54.5 67t-79 138.5t-91 159q-54 90 -117 196t-101.5 162t-66.5 78q-55 45 -55 123z" />
<glyph unicode="W" horiz-adv-x="1546" d="M35 862q0 51 38.5 102.5t80.5 51.5q35 0 59 -31.5t47 -93.5t50 -129t59 -121q25 -41 39.5 -74.5t34 -83.5t25.5 -61.5t17 -11.5q16 0 30.5 29t33 90.5t49.5 160.5q8 24 28.5 97t32.5 111.5t27 62.5q26 40 75.5 76t67.5 36q29 0 39.5 -16t10.5 -53q0 -5 -1.5 -16.5 t-3.5 -24t-2 -17.5q0 -1 22.5 -38.5t39.5 -80.5q20 -52 52.5 -113.5t64 -122t45.5 -99.5q35 -97 67 -97q11 0 31 33t33 74q18 50 37 140.5t26 121.5q2 7 4.5 15.5t16 61t27 111.5t28.5 146q8 45 20.5 64.5t45.5 47.5q62 52 81 52q35 0 49.5 -28t14.5 -101q0 -61 -15 -163.5 t-42 -220t-70 -249.5t-94 -238q-82 -168 -131.5 -227.5t-116.5 -59.5q-43 0 -65 16.5t-31 38t-47 120.5q-46 119 -79.5 181t-47.5 81q-50 98 -74 98q-19 0 -53 -121q-11 -33 -17 -50t-16 -46q-51 -145 -81 -208t-77 -87q-14 -7 -56 -18t-52 -11q-39 0 -64 16t-40.5 47 t-28 77.5t-29.5 109.5q-23 82 -51.5 156.5t-75.5 189.5t-67.5 182.5t-20.5 114.5z" />
<glyph unicode="X" horiz-adv-x="1356" d="M35 -119q0 6 1.5 25.5t2.5 30.5q1 9 63 94.5t181 240.5q50 67 118 149.5t89.5 113.5t21.5 57q0 15 -16 35.5t-66 79.5q-34 41 -96 131q-90 131 -119 179t-29 81q0 24 11.5 38.5t25.5 20.5t35 14q19 10 38 19.5t40 9.5q25 0 47 -12q44 -22 120.5 -85.5t139.5 -137.5 q41 -47 61.5 -64.5t43.5 -17.5q8 0 20 12t29.5 35t40.5 53q90 112 175.5 192.5t121.5 102.5q91 57 147 57q39 0 39 -32q0 -13 -6 -21t-21.5 -18.5t-19.5 -14.5q-25 -28 -73.5 -86t-149.5 -188q-45 -60 -79 -103.5t-56.5 -76.5t-22.5 -47q0 -32 25 -60.5t92.5 -81.5t95.5 -78 q100 -87 126 -111.5t43 -55t17 -72.5q0 -95 -37.5 -129.5t-119.5 -34.5q-21 0 -53 19t-154 104q-25 17 -56 37t-54.5 37.5t-45.5 35.5q-82 70 -100 70q-34 0 -91.5 -66t-193.5 -245q-32 -42 -41.5 -65.5t-25 -71t-31.5 -68.5q-42 -58 -76 -78t-86 -20q-44 0 -68 12.5 t-24 54.5z" />
<glyph unicode="Y" horiz-adv-x="1434" d="M35 684q0 59 17.5 109t53.5 104q51 72 102.5 108.5t88.5 36.5q41 0 41 -34q0 -15 -27 -71t-43 -93.5t-16 -67.5q0 -40 7 -60t42 -44q64 -41 238 -41q146 0 284 41.5t221.5 108t83.5 137.5q0 6 -16 50t-16 79q0 57 39 99.5t88.5 65.5t66.5 23q27 0 41.5 -7t30.5 -28 q39 -51 39 -94q0 -15 -4 -28.5t-12 -44.5t-9 -42q0 -51 -9.5 -95t-37.5 -93q-39 -72 -85.5 -130t-97.5 -96t-112 -59q-8 -3 -23.5 -7.5t-24 -8t-15.5 -8.5q-21 -14 -37 -43t-16 -45q0 -35 13 -105.5t13 -99.5q0 -61 -19 -110.5t-55.5 -79t-89.5 -29.5q-59 0 -86.5 22 t-27.5 80q0 90 4.5 147t7.5 76q0 53 -6 75t-27 29t-76 7q-180 0 -297.5 24t-177 83t-59.5 159z" />
<glyph unicode="Z" horiz-adv-x="1223" d="M35 985q0 20 19 42t55 41t90 32q33 8 123 21t215.5 22.5t277.5 9.5q174 0 262 -42.5t88 -129.5q0 -101 -229 -299q-60 -53 -125 -105.5t-115.5 -91t-89.5 -65.5q-100 -73 -145 -112.5t-45 -59.5q0 -11 14 -19t31 -8q24 0 377 78q44 10 95 24t78.5 19.5t55.5 5.5t80 -10 q55 -13 66.5 -33.5t11.5 -75.5q0 -52 -27 -81.5t-69.5 -42.5t-155.5 -29t-119 -17q-93 -14 -189.5 -29.5t-156 -24.5t-88.5 -13t-37 -4q-119 0 -184.5 16t-92 50t-26.5 91q0 46 27 90t73.5 90t172 152.5t143.5 122.5q67 59 151 118t106.5 81.5t22.5 62.5q0 23 -25.5 39.5 t-58.5 16.5q-1 0 -65 -7.5t-109 -7.5h-235q-103 0 -153.5 5.5t-72.5 22t-22 54.5z" />
<glyph unicode="[" horiz-adv-x="686" d="M66 -248q0 21 8 46t8 26q0 3 -4.5 120.5t-8 271t-3.5 302.5t3.5 302.5t8 271t4.5 120.5q0 1 -8 27t-8 45q0 40 27 89t71.5 82.5t97.5 33.5q37 0 82.5 -10.5t77.5 -16.5q52 -6 87.5 -10t72.5 -14t61 -27q16 -10 29.5 -29.5t13.5 -33.5q0 -32 -25 -47.5t-93 -20t-212 -4.5 q-34 0 -48.5 -3t-22 -16.5t-13.5 -42.5q-7 -39 -9.5 -118t-3.5 -210.5t-1 -367.5t1 -368.5t3.5 -211.5t9.5 -118q6 -29 13.5 -41.5t22 -15.5t48.5 -3h70q164 0 212 -16t48 -57q0 -15 -14 -34t-29 -30q-37 -25 -99.5 -34t-121.5 -17q-24 -3 -62.5 -12t-57 -11t-40.5 -2 q-53 0 -97.5 33.5t-71.5 82.5t-27 89z" />
<glyph unicode="\" horiz-adv-x="979" d="M41 1352q0 24 29 24q56 0 102.5 -48t126.5 -169q188 -280 337.5 -524t219.5 -381t70 -176q0 -96 -58 -96q-50 0 -80 20t-46.5 50.5t-49.5 107.5q-15 37 -55.5 111.5t-108 192.5t-149 256.5t-191.5 319.5q-55 90 -84 138t-46 91.5t-17 82.5z" />
<glyph unicode="]" horiz-adv-x="686" d="M0 -313q0 27 17.5 42t75.5 23t167 8h70q48 0 62.5 9t21.5 51q7 39 10 127.5t4.5 211.5t1.5 359q0 343 -3 489.5t-13 206.5q-7 44 -21.5 53t-62.5 9h-70q-161 0 -210.5 15.5t-49.5 56.5q0 12 13 31.5t30 31.5q24 17 61 27t72.5 14t87.5 10q32 6 77.5 16.5t82.5 10.5 q54 0 98.5 -33.5t71.5 -82.5t27 -89q0 -22 -8.5 -46.5t-8.5 -25.5q0 -23 4.5 -115t9.5 -245t5 -334t-5 -334t-9.5 -245t-4.5 -115q0 -1 8.5 -25t8.5 -47q0 -64 -59 -134.5t-138 -70.5q-37 0 -92 11.5t-68 13.5q-52 6 -87.5 10t-72.5 14t-61 27q-17 14 -30 32.5t-13 31.5z " />
<glyph unicode="^" horiz-adv-x="1024" d="M123 922l307 444h164l307 -444h-190l-199 292l-199 -292h-190z" />
<glyph unicode="_" horiz-adv-x="1298" d="M0 -82h1298v-108h-1298v108z" />
<glyph unicode="`" horiz-adv-x="836" d="M27 1647q0 53 33 78.5t92 25.5q8 0 48 -6.5t115 -25t177.5 -55.5t216.5 -91q49 -22 73.5 -54.5t24.5 -48.5q0 -36 -66 -36q-51 0 -184 30q-82 21 -157 29.5t-150 13.5t-120.5 8t-57.5 9q-19 12 -32 55.5t-13 67.5z" />
<glyph unicode="{" horiz-adv-x="758" d="M55 555q0 18 24 35.5t75 42.5q38 21 54.5 40t20.5 40t8.5 75t8.5 84q7 41 20 130t29 148t49.5 119t91.5 122t94 76t97 14q43 0 62.5 -24t39.5 -85q10 -27 10 -43q0 -22 -10 -33.5t-47 -42.5q-11 -8 -40 -41.5t-61 -77t-51 -75.5q-41 -69 -57 -121.5t-35 -151.5 q-14 -76 -24.5 -109.5t-38.5 -62t-82 -51.5q-17 -4 -17 -10q0 -5 5.5 -7t11.5 -5q80 -39 105 -79.5t38 -131.5q6 -46 13.5 -97t14 -82t23 -78t37.5 -87q36 -63 86 -127t72 -86q26 -22 41.5 -39.5t15.5 -38.5q0 -14 -10 -41q-20 -61 -39 -85t-63 -24q-42 0 -67 4.5t-54 22.5 t-70 61q-56 62 -88.5 118.5t-49.5 115.5t-33 160.5t-19 115.5q-13 79 -17.5 166t-16.5 115.5t-62 50.5q-61 28 -78 40.5t-17 39.5z" />
<glyph unicode="}" horiz-adv-x="762" d="M20 -303q0 13 7.5 25.5t20.5 24t30 26.5q22 22 69.5 83t88.5 130q24 43 38 82.5t23 80t18 100.5t11 79q13 92 38.5 132.5t106.5 78.5q4 2 8 3.5t6 4t2 4.5q0 5 -16 10q-52 22 -81.5 52t-41.5 70t-22 103q-14 84 -30.5 145t-57.5 128q-33 55 -82.5 116t-71.5 78 q-9 9 -19 17.5t-19 19t-13 21t-4 20.5q0 14 10 41q21 64 39 86.5t63 22.5q44 0 69 -4.5t53 -23t69 -62.5q60 -64 92.5 -124.5t47.5 -114.5t29 -152.5t19 -129.5q6 -33 10 -98t17.5 -90t62.5 -51q51 -26 75 -42.5t24 -35.5q0 -27 -17.5 -39.5t-77.5 -40.5q-50 -22 -62 -50.5 t-18 -121.5t-18 -160q-19 -121 -26.5 -164t-26 -105.5t-53 -122t-88.5 -116.5q-43 -43 -71.5 -61t-53 -22.5t-66.5 -4.5q-43 0 -62.5 24t-39.5 85q-9 24 -9 43z" />
<glyph unicode="~" horiz-adv-x="1024" d="M156 449q88 161 215 161q40 0 77 -11t86 -33t68.5 -30t44.5 -8q42 0 65.5 25t49.5 82l106 -113q-43 -79 -98.5 -120.5t-126.5 -41.5q-47 0 -78.5 11t-98.5 39t-91 28q-38 0 -63.5 -25.5t-51.5 -82.5z" />
<glyph unicode="&#xa1;" horiz-adv-x="584" d="M35 -270q0 18 19 102.5t28 147.5q28 207 63 352q12 59 21.5 108t24 80.5t37 46.5t63.5 15q53 0 65.5 -29.5t12.5 -122.5v-53q0 -71 -6.5 -131.5t-18.5 -147.5q-14 -121 -23 -196.5t-21 -128t-36.5 -87t-71.5 -60t-86 -25.5q-31 0 -51 47t-20 82zM113 760q0 85 70.5 150 t199.5 65q45 0 78 -12t50 -29.5t17 -34.5q0 -27 -32.5 -81t-92.5 -97q-51 -36 -90.5 -45.5t-93.5 -9.5q-51 0 -78.5 31.5t-27.5 62.5z" />
<glyph unicode="&#xa2;" horiz-adv-x="1321" d="M82 279q0 171 117.5 316.5t361.5 305.5q7 45 12.5 92.5t10.5 85.5q1 19 21 37.5t45.5 29.5t43.5 11q32 0 49 -16.5t17 -40.5q0 -15 -5 -36t-5 -28q0 -39 24 -39q8 0 69 17.5t111 21.5h76q50 0 91.5 -33t41.5 -92q0 -103 -80 -137q-19 -8 -43 -8q-12 0 -55.5 7t-73.5 7 q-16 0 -39 -10t-41 -10q-10 0 -32 6t-23 6q-20 0 -20 -219q0 -118 12 -303q129 26 197 61q36 20 72.5 56.5t45.5 56.5q10 20 27.5 33.5t26.5 13.5q38 0 70 -18t32 -56q0 -9 -12 -42t-29 -60q-32 -56 -112 -119.5t-166 -106t-134 -42.5q-16 0 -16 -29q0 -5 2 -10l3 -11 q1 -6 1 -12q0 -45 -45.5 -83t-81.5 -38q-67 0 -71 9q-20 37 -35 75t-15 41q0 4 2 6q5 5 5 13q0 4 -11 4q-3 0 -20 -2t-25 -2q-193 0 -295 77t-102 214zM293 375q0 -53 53.5 -98.5t128.5 -49.5q6 -1 15.5 -3t16 -3.5t13.5 -1.5q13 0 15 2.5t2 16.5q0 19 -4.5 58.5t-4.5 65.5 q0 18 8.5 129.5t12.5 217.5q-66 -32 -113.5 -67.5t-87.5 -96.5q-55 -83 -55 -170z" />
<glyph unicode="&#xa3;" horiz-adv-x="1485" d="M68 117q0 36 48 72.5t101 50.5q34 9 48.5 14.5t18.5 14.5t9 38q1 5 8.5 34t7.5 52q0 42 -10 67t-23.5 36t-25.5 14.5t-14 3.5q-23 12 -23 33q0 8 12.5 28t28.5 33q10 8 34.5 20t37.5 21q22 14 33 49.5t13.5 88.5t2.5 169v54q0 79 23.5 139t76.5 133q55 72 95.5 95.5 t74.5 23.5q12 0 21 -0.5t20 -1.5q9 2 65 35.5t101 33.5q65 0 94 -38q20 -24 43 -111.5t23 -179.5q0 -33 -2.5 -60.5t-8 -63t-11 -59t-9.5 -45.5q-15 -77 -36.5 -114t-59.5 -37t-57.5 17t-31 61.5t-26.5 152.5q-24 181 -39.5 232t-52.5 51q-11 0 -55 -74q-30 -48 -43.5 -98.5 t-18 -112.5t-8.5 -117q-2 -21 -6 -55t-4 -55q0 -54 5.5 -76t31.5 -22q1 0 51 7t88 7q140 0 205 -27.5t65 -93.5q0 -13 -22.5 -42.5t-44.5 -39.5q-25 -10 -70 -10q-36 0 -108.5 3t-84.5 3q-66 0 -100 -12.5t-46 -31.5t-21 -54.5t-19 -57.5q-2 -4 -3.5 -6.5t-4 -6.5t-4 -8.5 t-2.5 -10.5q0 -19 16 -38.5t31 -19.5q2 0 79 8t158 11q65 2 143.5 9t163.5 16.5t124.5 13.5t87.5 4q55 0 92 -14.5t56.5 -35.5t19.5 -38q0 -64 -35 -106t-99 -42q-25 1 -45.5 1.5t-56.5 0.5q-10 -1 -34 -3.5t-85.5 -7.5t-147.5 -13t-165 -15q-48 -4 -150 -13.5t-165 -17 t-81 -10t-28 -4.5q-27 0 -191 56q-54 19 -66.5 38t-12.5 54z" />
<glyph unicode="&#xa5;" horiz-adv-x="1212" d="M82 1141q0 18 6 30t16.5 20t21 12.5t21.5 8.5q14 8 25 14.5t27 11.5t43 5q21 0 71.5 -27t128 -83t166.5 -132q17 -14 49 -14q7 0 13.5 3.5t10 9.5t9.5 16q128 173 228 270t182 125q2 0 15 6t28 9.5t31 3.5q7 0 15.5 -8.5t8.5 -18.5q0 -19 -16 -31q-45 -41 -93 -100 t-107 -140.5t-131.5 -182.5t-137.5 -183q-18 -26 -22.5 -34t-13 -24t-14 -26t-16.5 -31q39 -1 72.5 -1.5t73.5 -2.5q11 -1 69.5 -7.5t102.5 -10.5q15 -1 28 -15.5t22 -33.5t9 -31q0 -26 -17.5 -39.5t-63 -18t-136.5 -4.5q-56 1 -103.5 1.5t-121.5 0.5q-36 -77 -61.5 -143.5 t-37.5 -103t-12 -43.5v-62q0 -33 -7 -56.5t-17 -41t-11 -19.5q-15 -44 -65 -67t-121 -23q-27 0 -40.5 13.5t-18 31t-5.5 23.5q-6 12 -6 25q0 5 18.5 59t59 160t92.5 229q-20 2 -51 2q-22 0 -52 -2t-32 -2q-30 0 -56 30.5t-26 88.5q0 15 4 21t12 9l17 7q51 26 115 26 q17 0 26 -0.5t21 -1.5t25.5 -2.5t23.5 -1.5q26 0 45 2q22 33 22 64q0 15 -26 39q-111 102 -183.5 180t-112.5 134t-40 77z" />
<glyph unicode="&#xa8;" horiz-adv-x="909" d="M27 1489q0 38 24 63t88 58q60 30 99 44.5t77 14.5q37 0 61.5 -37t24.5 -71q0 -59 -46.5 -76.5t-143.5 -28.5q-47 -4 -85 -11t-44 -7q-55 0 -55 51zM506 1503q0 41 25.5 65.5t89.5 51.5q110 49 147 49q40 0 65.5 -19.5t36.5 -43t11 -31.5q0 -52 -49 -82.5t-142 -34.5 q-44 -2 -80 -9t-49 -11q-55 0 -55 65z" />
<glyph unicode="&#xa9;" horiz-adv-x="1571" d="M55 717q0 162 56 298t155.5 232.5t231.5 148.5t286 52q155 0 288.5 -52.5t232.5 -148.5t155 -232.5t56 -297.5t-56 -297.5t-154.5 -232t-233.5 -148.5t-288 -53q-203 0 -370.5 91.5t-263 258t-95.5 381.5zM154 719q0 -140 47 -255t134 -200.5t202 -130.5t247 -45 t249 45.5t203 130t133.5 200t47.5 255.5q0 143 -47.5 258t-134 199.5t-201.5 129t-250 44.5q-130 0 -246.5 -45.5t-202.5 -129.5t-133.5 -199.5t-47.5 -256.5zM285 569q0 108 58 205t179 195q87 70 174.5 118t172 69.5t175.5 21.5q40 0 74.5 -24.5t34.5 -74.5 q0 -100 -98 -100q-23 0 -71 6t-69 6q-141 0 -252.5 -51.5t-172 -134t-60.5 -168.5q0 -63 65 -101t181 -38q112 0 203 31t146.5 74t76.5 81q10 18 23.5 27.5t21.5 9.5q26 0 45.5 -14t19.5 -41q0 -32 -28.5 -78t-84 -95.5t-126.5 -82.5q-58 -27 -156 -49.5t-168 -22.5 q-127 0 -196.5 17t-116.5 73q-51 60 -51 141z" />
<glyph unicode="&#xab;" horiz-adv-x="799" d="M47 489q0 11 4.5 28t13.5 41.5t21.5 56.5t17.5 47q62 152 98.5 211t88.5 59q22 0 32.5 -11t10.5 -47q0 -49 -6 -86t-14.5 -61t-14.5 -43q-59 -169 -59 -190q0 -34 10 -68t35 -105t38 -126t13 -109q0 -61 -45 -61q-3 0 -21.5 11.5t-40.5 29.5q-31 29 -73.5 118.5 t-75.5 184t-33 120.5zM414 485q0 14 8 39t29 77t22 54q44 110 68.5 162t52.5 83.5t63 31.5q45 0 45 -64q0 -49 -6 -85.5t-17 -67.5t-13 -37q-60 -174 -60 -191q0 -34 9 -64.5t35 -104.5t39 -129t13 -109q0 -33 -11.5 -44t-33.5 -11q-5 0 -28.5 12.5t-32.5 21.5 q-31 29 -73.5 120t-75.5 186.5t-33 119.5z" />
<glyph unicode="&#xad;" horiz-adv-x="942" d="M41 494q0 15 30.5 44.5t75.5 39.5q32 8 115.5 17t163.5 9q240 0 350.5 -25t110.5 -87q0 -14 -45 -31q-35 -13 -86.5 -18t-128 -9t-174.5 -10q-72 -5 -158 -19t-117 -14q-63 0 -100 36t-37 67z" />
<glyph unicode="&#xae;" horiz-adv-x="1571" d="M55 717q0 162 56 298t155.5 232.5t231.5 148.5t286 52q155 0 288.5 -52.5t232.5 -148.5t155 -232.5t56 -297.5t-56 -297.5t-154.5 -232t-233.5 -148.5t-288 -53q-203 0 -370.5 91.5t-263 258t-95.5 381.5zM154 719q0 -140 47 -255t134 -200.5t202 -130.5t247 -45 t249 45.5t203 130t133.5 200t47.5 255.5q0 143 -47.5 258t-134 199.5t-201.5 129t-250 44.5q-130 0 -246.5 -45.5t-202.5 -129.5t-133.5 -199.5t-47.5 -256.5zM291 942q0 33 62 83.5t183.5 90t290.5 39.5q75 0 130.5 -5.5t110 -25.5t99.5 -57q56 -46 56 -94 q0 -64 -40.5 -124.5t-111.5 -108.5t-156 -74q-59 -18 -80.5 -28t-21.5 -30t48.5 -52.5t115.5 -57.5t123 -25q40 0 69 21q16 12 34 25t34 13q53 0 53 -75q0 -54 -72 -87.5t-171 -33.5q-58 0 -129 20t-140.5 58.5t-118.5 87.5q-41 43 -53.5 53.5t-46.5 13.5q-44 0 -55.5 -12.5 t-11.5 -50.5q0 -75 -31 -123.5t-78 -48.5q-9 0 -25.5 9.5t-23.5 16.5q-18 21 -24.5 60t-6.5 112v101q0 93 4.5 149t7.5 74q0 12 -12 40t-12 46zM463 801q0 -58 26 -74t82 -16q143 0 257 31t178.5 75t64.5 80q0 43 -26.5 68.5t-83.5 38.5q-120 30 -246 30q-14 0 -34 -2 t-40.5 -4.5t-34.5 -3.5q-58 -3 -88 -21.5t-42.5 -64t-12.5 -137.5z" />
<glyph unicode="&#xb0;" horiz-adv-x="498" d="M27 1159q0 70 31 120t81.5 75.5t108.5 25.5q90 0 155.5 -58.5t65.5 -162.5q0 -60 -29.5 -111t-80.5 -80.5t-111 -29.5t-111 29.5t-80.5 80.5t-29.5 111zM117 1159q0 -62 38.5 -96.5t92.5 -34.5q52 0 91.5 34.5t39.5 96.5q0 55 -39 93t-92 38q-54 0 -92.5 -38.5 t-38.5 -92.5z" />
<glyph unicode="&#xb4;" horiz-adv-x="836" d="M27 1470q0 16 24.5 48.5t73.5 54.5q123 57 215 90.5t151.5 49.5t99 23t42.5 7q33 6 59 6q56 0 85.5 -27t29.5 -75q0 -26 -13.5 -69t-31.5 -54q-3 -2 -273 -27q-93 -8 -224 -35.5t-179 -27.5q-59 0 -59 36z" />
<glyph unicode="&#xbb;" horiz-adv-x="799" d="M96 80q0 50 6 87t15 61t16 42q60 183 60 217q0 8 -60 191q-6 18 -15.5 43.5t-15.5 61.5t-6 85q0 64 45 64q52 0 86.5 -58.5t98.5 -218.5q1 -2 23 -57t29 -76t7 -37q0 -25 -33 -120.5t-75.5 -186t-73.5 -119.5q-11 -10 -34 -22t-28 -12q-22 0 -33.5 11t-11.5 44zM463 86 q0 51 6 87t14 58t17 43q59 180 59 220q0 8 -3.5 20.5t-14 44.5t-19 59t-22.5 66q-13 35 -19 52t-12 53t-6 85q0 58 45 58q52 0 88 -58.5t96 -211.5q36 -89 48 -121t12 -52q0 -26 -32.5 -119.5t-76 -184t-74.5 -119.5q-17 -15 -37.5 -28t-23.5 -13q-45 0 -45 61z" />
<glyph unicode="&#xbf;" horiz-adv-x="1339" d="M41 -254q0 63 56 130.5t165 129.5q28 17 92.5 49.5t85.5 44.5q28 16 52 30.5t47 27.5t51 26q46 23 66 41.5t20 48.5q0 12 -24.5 59t-24.5 73q0 28 8 37.5t41 31.5q3 1 14.5 10.5t19 14t17.5 4.5q66 0 152 -84q34 -33 44.5 -59.5t10.5 -77.5q0 -87 -143 -183 q-272 -177 -359 -206q-96 -33 -96 -78q0 -20 4.5 -28.5t28.5 -25.5q72 -38 264 -38q92 0 185.5 15.5t115.5 22.5q27 12 27 41q0 46 -11 72t-18 35q0 14 14 41t29 39q37 28 127 28q36 0 79 -27t73 -61.5t30 -54.5q0 -43 -34 -84t-85 -79t-155 -109q-19 -14 -80.5 -36 t-154 -39t-195.5 -17q-172 0 -294 29t-183.5 82t-61.5 124zM555 768q0 29 28 85.5t83 82.5q26 12 74 24.5t77 12.5q54 0 88.5 -11.5t50 -29t15.5 -35.5q0 -44 -40 -98t-105.5 -93t-129.5 -42q-72 0 -106.5 24t-34.5 80z" />
<glyph unicode="&#xc0;" d="M-27 -63q0 42 26 104.5t75.5 145.5t128.5 206q72 113 138 201.5t111 142t77.5 88t41.5 43.5q60 74 93 101q20 16 33.5 26.5t22.5 21t9 19.5q0 20 -28.5 64t-34.5 57q-8 20 -13.5 26t-21.5 13q-18 8 -22.5 18.5t-4.5 32.5q0 45 64 75t102 30q50 0 94 -32.5t90 -95.5 t106 -168.5t157 -281.5q62 -115 180.5 -306.5t148 -243t29.5 -85.5q0 -60 -45 -99.5t-113 -39.5q-76 0 -141 78q-43 55 -57 70.5t-37 15.5q-31 0 -119.5 -18.5t-135.5 -26.5t-116 -8q-64 0 -117.5 6.5t-88 14t-38.5 7.5q-167 0 -233.5 -8.5t-82 -32t-18.5 -90.5 q-1 -47 -24.5 -87.5t-59.5 -62.5t-73 -22q-58 0 -80.5 24.5t-22.5 76.5zM395 1647q0 53 33 78.5t92 25.5q8 0 48 -6.5t115 -25t177.5 -55.5t216.5 -91q52 -23 75.5 -55t23.5 -48q0 -36 -66 -36q-51 0 -184 30q-84 21 -158 29.5t-150 13.5t-122 8t-58 9q-18 11 -30.5 51.5 t-12.5 71.5zM403 367q0 -17 3.5 -26t15.5 -9q-13 0 78.5 16.5t191.5 16.5q1 0 73 -9.5t130 -9.5q164 0 164 21q0 25 -4 35.5t-17 31.5q-9 18 -36 82t-50 115t-49 96q-51 95 -72.5 129.5t-37.5 34.5q-6 0 -24 -14t-41.5 -40t-47.5 -65q-16 -26 -56.5 -89t-97.5 -140 q-21 -29 -59 -72.5t-51 -63.5t-13 -40z" />
<glyph unicode="&#xc1;" d="M-27 -63q0 42 26 104.5t75.5 145.5t128.5 206q72 113 138 201.5t111 142t77.5 88t41.5 43.5q60 74 93 101q20 16 33.5 26.5t22.5 21t9 19.5q0 20 -28.5 64t-34.5 57q-8 20 -13.5 26t-21.5 13q-18 8 -22.5 18.5t-4.5 32.5q0 45 64 75t102 30q50 0 94 -32.5t90 -95.5 t106 -168.5t157 -281.5q62 -115 180.5 -306.5t148 -243t29.5 -85.5q0 -60 -45 -99.5t-113 -39.5q-76 0 -141 78q-43 55 -57 70.5t-37 15.5q-31 0 -119.5 -18.5t-135.5 -26.5t-116 -8q-64 0 -117.5 6.5t-88 14t-38.5 7.5q-167 0 -233.5 -8.5t-82 -32t-18.5 -90.5 q-1 -47 -24.5 -87.5t-59.5 -62.5t-73 -22q-58 0 -80.5 24.5t-22.5 76.5zM383 1470q0 16 24.5 48.5t73.5 54.5q123 57 215 90.5t151.5 49.5t99 23t42.5 7q34 6 60 6q55 0 84.5 -27t29.5 -75q0 -29 -13.5 -70.5t-31.5 -52.5q-3 -2 -272 -27q-92 -8 -223 -35.5t-181 -27.5 q-59 0 -59 36zM403 367q0 -17 3.5 -26t15.5 -9q-13 0 78.5 16.5t191.5 16.5q1 0 73 -9.5t130 -9.5q164 0 164 21q0 25 -4 35.5t-17 31.5q-9 18 -36 82t-50 115t-49 96q-51 95 -72.5 129.5t-37.5 34.5q-6 0 -24 -14t-41.5 -40t-47.5 -65q-16 -26 -56.5 -89t-97.5 -140 q-21 -29 -59 -72.5t-51 -63.5t-13 -40z" />
<glyph unicode="&#xc2;" d="M-27 -63q0 42 26 104.5t75.5 145.5t128.5 206q72 113 138 201.5t111 142t77.5 88t41.5 43.5q60 74 93 101q20 16 33.5 26.5t22.5 21t9 19.5q0 20 -28.5 64t-34.5 57q-8 20 -13.5 26t-21.5 13q-18 8 -22.5 18.5t-4.5 32.5q0 45 64 75t102 30q50 0 94 -32.5t90 -95.5 t106 -168.5t157 -281.5q62 -115 180.5 -306.5t148 -243t29.5 -85.5q0 -60 -45 -99.5t-113 -39.5q-76 0 -141 78q-43 55 -57 70.5t-37 15.5q-31 0 -119.5 -18.5t-135.5 -26.5t-116 -8q-64 0 -117.5 6.5t-88 14t-38.5 7.5q-167 0 -233.5 -8.5t-82 -32t-18.5 -90.5 q-1 -47 -24.5 -87.5t-59.5 -62.5t-73 -22q-58 0 -80.5 24.5t-22.5 76.5zM270 1479q0 48 32.5 83t90.5 63t160 67q105 39 132.5 49t47.5 10q19 0 48 -11t122 -48q49 -20 118 -48.5t97.5 -47.5t44 -47t15.5 -70q0 -31 -22 -38t-89 -7q-17 0 -82.5 20t-128.5 33.5t-149 13.5 q-57 0 -112.5 -11.5t-120 -31.5t-95.5 -24h-49q-60 0 -60 45zM403 367q0 -17 3.5 -26t15.5 -9q-13 0 78.5 16.5t191.5 16.5q1 0 73 -9.5t130 -9.5q164 0 164 21q0 25 -4 35.5t-17 31.5q-9 18 -36 82t-50 115t-49 96q-51 95 -72.5 129.5t-37.5 34.5q-6 0 -24 -14t-41.5 -40 t-47.5 -65q-16 -26 -56.5 -89t-97.5 -140q-21 -29 -59 -72.5t-51 -63.5t-13 -40z" />
<glyph unicode="&#xc3;" d="M-27 -63q0 42 26 104.5t75.5 145.5t128.5 206q72 113 138 201.5t111 142t77.5 88t41.5 43.5q60 74 93 101q20 16 33.5 26.5t22.5 21t9 19.5q0 20 -28.5 64t-34.5 57q-8 20 -13.5 26t-21.5 13q-18 8 -22.5 18.5t-4.5 32.5q0 45 64 75t102 30q50 0 94 -32.5t90 -95.5 t106 -168.5t157 -281.5q62 -115 180.5 -306.5t148 -243t29.5 -85.5q0 -60 -45 -99.5t-113 -39.5q-76 0 -141 78q-43 55 -57 70.5t-37 15.5q-31 0 -119.5 -18.5t-135.5 -26.5t-116 -8q-64 0 -117.5 6.5t-88 14t-38.5 7.5q-167 0 -233.5 -8.5t-82 -32t-18.5 -90.5 q-1 -47 -24.5 -87.5t-59.5 -62.5t-73 -22q-58 0 -80.5 24.5t-22.5 76.5zM340 1454q0 50 15.5 81.5t52.5 63t127 93.5q73 51 107.5 69.5t64.5 18.5q29 0 66 -21t99 -71q18 -12 32.5 -15.5t37.5 -3.5q21 0 40 6t36.5 17t38.5 24q64 40 90 53t80 13q33 0 33 -60q0 -35 -11 -61 q-9 -23 -70.5 -75t-129 -95.5t-95.5 -44.5q-26 0 -53 7t-45 16t-41 25t-33 22q-43 30 -98 30q-41 0 -63.5 -11t-79.5 -46q-5 -3 -28 -16.5t-46.5 -25.5t-46.5 -17t-51 -5q-29 0 -29 29zM403 367q0 -17 3.5 -26t15.5 -9q-13 0 78.5 16.5t191.5 16.5q1 0 73 -9.5t130 -9.5 q164 0 164 21q0 25 -4 35.5t-17 31.5q-9 18 -36 82t-50 115t-49 96q-51 95 -72.5 129.5t-37.5 34.5q-6 0 -24 -14t-41.5 -40t-47.5 -65q-16 -26 -56.5 -89t-97.5 -140q-21 -29 -59 -72.5t-51 -63.5t-13 -40z" />
<glyph unicode="&#xc4;" d="M-27 -63q0 42 26 104.5t75.5 145.5t128.5 206q72 113 138 201.5t111 142t77.5 88t41.5 43.5q60 74 93 101q20 16 33.5 26.5t22.5 21t9 19.5q0 20 -28.5 64t-34.5 57q-8 20 -13.5 26t-21.5 13q-18 8 -22.5 18.5t-4.5 32.5q0 45 64 75t102 30q50 0 94 -32.5t90 -95.5 t106 -168.5t157 -281.5q62 -115 180.5 -306.5t148 -243t29.5 -85.5q0 -60 -45 -99.5t-113 -39.5q-76 0 -141 78q-43 55 -57 70.5t-37 15.5q-31 0 -119.5 -18.5t-135.5 -26.5t-116 -8q-64 0 -117.5 6.5t-88 14t-38.5 7.5q-167 0 -233.5 -8.5t-82 -32t-18.5 -90.5 q-1 -47 -24.5 -87.5t-59.5 -62.5t-73 -22q-58 0 -80.5 24.5t-22.5 76.5zM356 1489q0 40 22.5 64.5t88.5 56.5q49 25 71.5 34.5t49.5 17t55 7.5q37 0 62.5 -37t25.5 -71q0 -58 -47.5 -76t-144.5 -29q-45 -4 -83.5 -11t-43.5 -7q-56 0 -56 51zM403 367q0 -17 3.5 -26t15.5 -9 q-13 0 78.5 16.5t191.5 16.5q1 0 73 -9.5t130 -9.5q164 0 164 21q0 25 -4 35.5t-17 31.5q-9 18 -36 82t-50 115t-49 96q-51 95 -72.5 129.5t-37.5 34.5q-6 0 -24 -14t-41.5 -40t-47.5 -65q-16 -26 -56.5 -89t-97.5 -140q-21 -29 -59 -72.5t-51 -63.5t-13 -40zM834 1503 q0 41 26.5 65t89.5 52q112 49 148 49q40 0 65.5 -20t36 -43t10.5 -31q0 -51 -47.5 -82t-142.5 -35q-44 -2 -80 -9t-49 -11q-26 0 -41.5 18.5t-15.5 46.5z" />
<glyph unicode="&#xc5;" d="M-27 -63q0 42 26 104.5t75.5 145.5t128.5 206q72 113 138 201.5t111 142t77.5 88t41.5 43.5q60 74 93 101q20 16 33.5 26.5t22.5 21t9 19.5q0 20 -28.5 64t-34.5 57q-8 20 -13.5 26t-21.5 13q-18 8 -22.5 18.5t-4.5 32.5q0 45 64 75t102 30q50 0 94 -32.5t90 -95.5 t106 -168.5t157 -281.5q62 -115 180.5 -306.5t148 -243t29.5 -85.5q0 -60 -45 -99.5t-113 -39.5q-76 0 -141 78q-43 55 -57 70.5t-37 15.5q-31 0 -119.5 -18.5t-135.5 -26.5t-116 -8q-64 0 -117.5 6.5t-88 14t-38.5 7.5q-167 0 -233.5 -8.5t-82 -32t-18.5 -90.5 q-1 -47 -24.5 -87.5t-59.5 -62.5t-73 -22q-58 0 -80.5 24.5t-22.5 76.5zM403 367q0 -17 3.5 -26t15.5 -9q-13 0 78.5 16.5t191.5 16.5q1 0 73 -9.5t130 -9.5q164 0 164 21q0 25 -4 35.5t-17 31.5q-9 18 -36 82t-50 115t-49 96q-51 95 -72.5 129.5t-37.5 34.5q-6 0 -24 -14 t-41.5 -40t-47.5 -65q-16 -26 -56.5 -89t-97.5 -140q-21 -29 -59 -72.5t-51 -63.5t-13 -40zM420 1593q0 67 53 140t140 122.5t182 49.5q107 0 168 -58.5t61 -158.5q0 -52 -30.5 -93t-86.5 -88q-44 -36 -106 -54.5t-131 -18.5q-50 0 -86.5 5.5t-69.5 23t-65 55.5 q-29 33 -29 75zM537 1638q0 -30 52 -65t136 -35q53 0 111.5 35.5t58.5 97.5q0 52 -43 84q-43 29 -133 29q-44 0 -86.5 -19.5t-69 -53t-26.5 -73.5z" />
<glyph unicode="&#xc6;" horiz-adv-x="2464" d="M-27 -82q0 45 29 118.5t89 176t146.5 223t204.5 269.5q68 85 127 147t101 100.5t59 53.5q21 17 21 26q-10 31 -38 85.5t-73 78.5q-16 10 -16 25q0 8 2 30t2 21q9 19 61.5 46.5t93.5 27.5q72 0 130 -58t137 -190q59 -98 107 -188.5t88 -170.5t52.5 -99t24.5 -19 q18 0 18 36v27q-8 101 -8 186q0 43 1.5 68.5t2.5 34.5q0 23 -18 41q-21 26 -21 43q0 46 125 102q51 22 109 35t101 17t96.5 6t125.5 4q167 8 301.5 18t133.5 10q37 0 59.5 -22.5t22.5 -67.5q0 -37 -16 -59t-60 -37q-148 -55 -486 -55h-112q-85 0 -126 -8t-53 -29.5 t-12 -71.5q1 -21 1.5 -39t0.5 -53v-76q0 -30 3 -41.5t12.5 -15.5t31.5 -4q17 1 32 1.5t48 0.5l77 20q77 20 173 33q180 26 221 39q34 12 43 12q26 0 43 -13.5t17 -27.5q0 -31 -20 -74t-52 -69q-68 -56 -330 -107q-102 -19 -163.5 -36.5t-86 -37t-31.5 -50.5t-7 -89 q0 -21 15 -37t36 -16q10 0 20.5 3.5t22.5 6.5q16 1 61.5 4.5t124.5 13t178 27.5q24 4 85 17t94 26.5t53 30.5q19 19 28 25q11 7 39 17.5t37 10.5q31 0 41 -18t10 -64q0 -18 -23 -62.5t-59 -78.5q-34 -32 -138 -79.5t-233 -81t-251 -33.5q-11 0 -26 2t-59 5t-91 3 q-5 0 -27 -6t-33 -6q-36 0 -78 29.5t-73 66.5q-34 46 -50 62t-44 16q-18 0 -89 -16t-137.5 -26t-138.5 -10q-36 0 -153 15.5t-193 15.5q-97 0 -145.5 -7t-66 -27.5t-19.5 -63.5q-2 -53 -13 -89t-49 -69q-47 -39 -98 -39t-77 14.5t-26 63.5zM408 356q0 -9 9 -14.5t17 -5.5 q9 0 86 12t146 12q42 0 118 -10t115 -10q64 0 116 6t52 14q0 13 -20 66q-85 206 -151 333.5t-85 127.5q-37 0 -104 -105q-56 -88 -107.5 -155.5t-101 -130t-70 -92t-20.5 -48.5z" />
<glyph unicode="&#xc7;" horiz-adv-x="1292" d="M55 352q0 121 34 241.5t101 234.5t164.5 216t225.5 189q210 145 389 145q97 0 156 -20.5t86.5 -65t27.5 -118.5q0 -32 -12 -58.5t-34 -41.5t-50 -15q-19 0 -98 23.5t-134 23.5q-185 0 -334.5 -97t-233 -248t-83.5 -302q0 -73 50 -145.5t141.5 -119.5t207.5 -47 q74 0 152 24t136.5 54t86.5 54q18 16 37.5 32.5t50.5 16.5q19 0 44.5 -21.5t25.5 -64.5q0 -59 -23 -94.5t-63 -75.5q-28 -29 -64.5 -50t-74 -32.5t-133.5 -38.5q-55 -14 -96.5 -62.5t-41.5 -72.5q0 -8 2 -42t2 -55q0 -41 -25 -70t-73 -38q-70 -12 -84 -12q-12 0 -35.5 17 t-23.5 40q0 9 27.5 94.5t27.5 138.5q0 14 -11 20t-31.5 8.5t-29.5 4.5q-80 18 -149.5 53.5t-114.5 79.5q-34 34 -62 84t-44.5 107.5t-16.5 105.5z" />
<glyph unicode="&#xc8;" horiz-adv-x="1624" d="M68 106q0 45 47.5 86t122.5 68q26 11 35.5 17.5t11.5 15t4 37.5q1 10 4.5 24t3.5 29q0 62 -11.5 85t-41.5 32q-46 16 -61 27t-15 48q0 18 30 58.5t74 68.5q28 20 37.5 31t9.5 37q0 96 -3 133.5t-15 56t-43 29.5q-20 8 -30.5 15.5t-10.5 23.5q0 25 42 67.5t73 59.5 q23 14 179.5 48.5t387.5 68.5q90 14 180 30.5t159.5 30t114 21.5t62.5 8q113 0 113 -105q0 -42 -14 -63t-52 -51q-82 -64 -139 -64q-34 0 -68.5 5.5t-66.5 13t-41 8.5q-20 0 -123 -10q-7 0 -29.5 -1t-62.5 -3t-100 -7t-115 -12q-133 -16 -178 -28.5t-56.5 -38.5t-11.5 -97 q0 -93 9.5 -136.5t33.5 -43.5q-6 0 67 14.5t156 24.5q365 47 441 47q84 0 140 -30.5t56 -77.5q0 -54 -26 -86.5t-79 -48.5t-124 -17q-215 -5 -344 -14.5t-209 -24.5t-100 -33q-14 -12 -22 -36t-13 -56.5t-8 -42.5q-11 -26 -11 -35q0 -17 19 -34t37 -17q2 0 68.5 14t164.5 27 q104 15 247.5 46.5t198.5 42.5t117 11q47 0 86 -25.5t39 -74.5q0 -32 -18.5 -67t-42.5 -52q-18 -11 -59 -15t-106 -11.5t-140 -26.5q-59 -15 -147 -30.5t-182.5 -31.5t-211.5 -42q-29 -6 -90.5 -21.5t-65.5 -15.5q-56 0 -194 33q-46 10 -68 28.5t-22 54.5zM449 1647 q0 53 33 78.5t91 25.5q8 0 48 -6.5t115 -25t177.5 -55.5t216.5 -91q52 -23 75.5 -55t23.5 -48q0 -36 -66 -36q-51 0 -184 30q-82 21 -156.5 29.5t-150 13.5t-122 8t-58.5 9q-17 11 -30 52.5t-13 70.5z" />
<glyph unicode="&#xc9;" horiz-adv-x="1624" d="M68 106q0 45 47.5 86t122.5 68q26 11 35.5 17.5t11.5 15t4 37.5q1 10 4.5 24t3.5 29q0 62 -11.5 85t-41.5 32q-46 16 -61 27t-15 48q0 18 30 58.5t74 68.5q28 20 37.5 31t9.5 37q0 96 -3 133.5t-15 56t-43 29.5q-20 8 -30.5 15.5t-10.5 23.5q0 25 42 67.5t73 59.5 q23 14 179.5 48.5t387.5 68.5q90 14 180 30.5t159.5 30t114 21.5t62.5 8q113 0 113 -105q0 -42 -14 -63t-52 -51q-82 -64 -139 -64q-34 0 -68.5 5.5t-66.5 13t-41 8.5q-20 0 -123 -10q-7 0 -29.5 -1t-62.5 -3t-100 -7t-115 -12q-133 -16 -178 -28.5t-56.5 -38.5t-11.5 -97 q0 -93 9.5 -136.5t33.5 -43.5q-6 0 67 14.5t156 24.5q365 47 441 47q84 0 140 -30.5t56 -77.5q0 -54 -26 -86.5t-79 -48.5t-124 -17q-215 -5 -344 -14.5t-209 -24.5t-100 -33q-14 -12 -22 -36t-13 -56.5t-8 -42.5q-11 -26 -11 -35q0 -17 19 -34t37 -17q2 0 68.5 14t164.5 27 q104 15 247.5 46.5t198.5 42.5t117 11q47 0 86 -25.5t39 -74.5q0 -32 -18.5 -67t-42.5 -52q-18 -11 -59 -15t-106 -11.5t-140 -26.5q-59 -15 -147 -30.5t-182.5 -31.5t-211.5 -42q-29 -6 -90.5 -21.5t-65.5 -15.5q-56 0 -194 33q-46 10 -68 28.5t-22 54.5zM477 1470 q0 16 24 48t74 55q123 57 215 90.5t151.5 49.5t99 23t42.5 7q34 6 60 6q56 0 85 -27t29 -75q0 -29 -13.5 -70.5t-31.5 -52.5q-3 -2 -272 -27q-92 -8 -223 -35.5t-180 -27.5q-60 0 -60 36z" />
<glyph unicode="&#xca;" horiz-adv-x="1624" d="M68 106q0 45 47.5 86t122.5 68q26 11 35.5 17.5t11.5 15t4 37.5q1 10 4.5 24t3.5 29q0 62 -11.5 85t-41.5 32q-46 16 -61 27t-15 48q0 18 30 58.5t74 68.5q28 20 37.5 31t9.5 37q0 96 -3 133.5t-15 56t-43 29.5q-20 8 -30.5 15.5t-10.5 23.5q0 25 42 67.5t73 59.5 q23 14 179.5 48.5t387.5 68.5q90 14 180 30.5t159.5 30t114 21.5t62.5 8q113 0 113 -105q0 -42 -14 -63t-52 -51q-82 -64 -139 -64q-34 0 -68.5 5.5t-66.5 13t-41 8.5q-20 0 -123 -10q-7 0 -29.5 -1t-62.5 -3t-100 -7t-115 -12q-133 -16 -178 -28.5t-56.5 -38.5t-11.5 -97 q0 -93 9.5 -136.5t33.5 -43.5q-6 0 67 14.5t156 24.5q365 47 441 47q84 0 140 -30.5t56 -77.5q0 -54 -26 -86.5t-79 -48.5t-124 -17q-215 -5 -344 -14.5t-209 -24.5t-100 -33q-14 -12 -22 -36t-13 -56.5t-8 -42.5q-11 -26 -11 -35q0 -17 19 -34t37 -17q2 0 68.5 14t164.5 27 q104 15 247.5 46.5t198.5 42.5t117 11q47 0 86 -25.5t39 -74.5q0 -32 -18.5 -67t-42.5 -52q-18 -11 -59 -15t-106 -11.5t-140 -26.5q-59 -15 -147 -30.5t-182.5 -31.5t-211.5 -42q-29 -6 -90.5 -21.5t-65.5 -15.5q-56 0 -194 33q-46 10 -68 28.5t-22 54.5zM395 1477 q0 70 64.5 113t218.5 102q51 19 87.5 32.5t59 20t35.5 6.5q19 0 48 -11t122 -48q132 -54 175.5 -74.5t70.5 -53t27 -87.5q0 -30 -20.5 -36.5t-90.5 -6.5q-17 0 -82.5 20t-129.5 33.5t-149 13.5q-55 0 -111.5 -12t-119.5 -31.5t-94 -23.5h-51q-34 0 -47 11t-13 32z" />
<glyph unicode="&#xcb;" horiz-adv-x="1624" d="M68 106q0 45 47.5 86t122.5 68q26 11 35.5 17.5t11.5 15t4 37.5q1 10 4.5 24t3.5 29q0 62 -11.5 85t-41.5 32q-46 16 -61 27t-15 48q0 18 30 58.5t74 68.5q28 20 37.5 31t9.5 37q0 96 -3 133.5t-15 56t-43 29.5q-20 8 -30.5 15.5t-10.5 23.5q0 25 42 67.5t73 59.5 q23 14 179.5 48.5t387.5 68.5q90 14 180 30.5t159.5 30t114 21.5t62.5 8q113 0 113 -105q0 -42 -14 -63t-52 -51q-82 -64 -139 -64q-34 0 -68.5 5.5t-66.5 13t-41 8.5q-20 0 -123 -10q-7 0 -29.5 -1t-62.5 -3t-100 -7t-115 -12q-133 -16 -178 -28.5t-56.5 -38.5t-11.5 -97 q0 -93 9.5 -136.5t33.5 -43.5q-6 0 67 14.5t156 24.5q365 47 441 47q84 0 140 -30.5t56 -77.5q0 -54 -26 -86.5t-79 -48.5t-124 -17q-215 -5 -344 -14.5t-209 -24.5t-100 -33q-14 -12 -22 -36t-13 -56.5t-8 -42.5q-11 -26 -11 -35q0 -17 19 -34t37 -17q2 0 68.5 14t164.5 27 q104 15 247.5 46.5t198.5 42.5t117 11q47 0 86 -25.5t39 -74.5q0 -32 -18.5 -67t-42.5 -52q-18 -11 -59 -15t-106 -11.5t-140 -26.5q-59 -15 -147 -30.5t-182.5 -31.5t-211.5 -42q-29 -6 -90.5 -21.5t-65.5 -15.5q-56 0 -194 33q-46 10 -68 28.5t-22 54.5zM451 1489 q0 40 23 65t87 56q60 30 99 44.5t77 14.5q37 0 62.5 -37t25.5 -71q0 -58 -47.5 -76t-144.5 -29q-45 -4 -83.5 -11t-43.5 -7q-55 0 -55 51zM928 1503q0 41 26.5 65t89.5 52q112 49 148 49q40 0 65.5 -19.5t36.5 -43t11 -31.5q0 -51 -48.5 -82t-142.5 -35q-44 -2 -80 -9 t-49 -11q-26 0 -41.5 18.5t-15.5 46.5z" />
<glyph unicode="&#xcc;" horiz-adv-x="451" d="M-158 1647q0 53 33 78.5t92 25.5q8 0 48 -6.5t115 -25t177.5 -55.5t216.5 -91q52 -23 75.5 -55t23.5 -48q0 -36 -66 -36q-51 0 -184 30q-84 21 -158.5 29.5t-149.5 13.5t-120.5 8t-57.5 9q-18 11 -31.5 54t-13.5 69zM104 233q0 20 4.5 47.5t4.5 51.5q0 13 -1.5 43 t-3.5 68.5t-2 62.5q0 211 17.5 387t28.5 246q12 37 48 58.5t62 21.5q49 0 65.5 -45t16.5 -195q0 -43 -4 -161t-4 -189q0 -36 2 -74t7 -135.5t5 -136.5q0 -46 -0.5 -72t-1.5 -59q1 -11 1.5 -19.5t0.5 -23.5q0 -39 -41 -74.5t-84 -38.5q-52 0 -67 10.5t-23 36.5 q-8 6 -19.5 48.5t-11.5 141.5z" />
<glyph unicode="&#xcd;" horiz-adv-x="451" d="M-158 1470q0 16 24 48t75 55q126 59 216 91.5t150.5 48.5t99.5 23t42 7q33 6 59 6q56 0 85.5 -27t29.5 -75q0 -26 -13.5 -69t-31.5 -54q-4 -2 -273 -27q-92 -8 -223 -35.5t-180 -27.5q-60 0 -60 36zM74 233q0 12 5 43.5t5 55.5q0 18 -4 77t-4 97q0 162 10.5 300.5 t21 220.5t15.5 112q12 37 48 58.5t62 21.5q49 0 65.5 -45t16.5 -195q0 -65 -5 -186.5t-5 -163.5q0 -54 8.5 -164t8.5 -182q0 -36 -2.5 -71t-2.5 -60q0 -8 2.5 -19.5t2.5 -23.5q0 -40 -41 -75t-84 -38q-52 0 -66 9.5t-25 37.5q-8 6 -20 46.5t-12 143.5z" />
<glyph unicode="&#xce;" horiz-adv-x="465" d="M-207 1479q0 48 32.5 83t90.5 63t160 67q98 37 130.5 48t51.5 11t48 -11t122 -48q142 -59 180.5 -76.5t65 -50t26.5 -86.5q0 -21 -10 -30.5t-30.5 -12t-69.5 -2.5q-17 0 -82.5 20t-129.5 33.5t-149 13.5q-57 0 -114 -12.5t-118.5 -31.5t-92.5 -23h-51q-60 0 -60 45z M102 233q0 14 2 32t3.5 35.5t1.5 31.5q0 13 -1.5 43t-3.5 68.5t-2 62.5q0 223 17 393.5t28 239.5q13 38 49 59t62 21q48 0 65 -45t17 -195q0 -45 -4 -162t-4 -188q0 -37 7 -155t7 -191q0 -18 -2 -42l-2 -48q-2 -24 -2 -41q0 -1 3 -16t3 -27q0 -40 -41 -75t-84 -38 q-52 0 -67 10.5t-23 36.5q-7 6 -18 46.5t-11 143.5z" />
<glyph unicode="&#xcf;" horiz-adv-x="451" d="M-195 1489q0 38 24.5 63t88.5 58q49 25 71.5 34.5t49.5 17t55 7.5q36 0 61 -37.5t25 -70.5q0 -59 -46.5 -76.5t-143.5 -28.5q-47 -4 -85 -11t-44 -7q-56 0 -56 51zM92 233q0 20 4 50t4 49q0 23 -0.5 35.5t-1.5 34.5t-2.5 50t-1.5 54q0 211 17.5 387t29.5 246q13 38 49 59 t62 21q48 0 64 -45.5t16 -194.5q0 -43 -4 -161t-4 -189q0 -36 2 -74t7 -135.5t5 -136.5q0 -46 -0.5 -72t-1.5 -59q1 -11 1.5 -19.5t0.5 -23.5q0 -41 -40.5 -75.5t-82.5 -37.5q-52 0 -67 10.5t-23 36.5q-8 6 -20.5 46.5t-12.5 143.5zM285 1503q0 41 26 66t88 51 q112 49 148 49q40 0 65.5 -20t36 -43t10.5 -31q0 -52 -48 -82.5t-142 -34.5q-44 -2 -80 -9t-49 -11q-55 0 -55 65z" />
<glyph unicode="&#xd1;" horiz-adv-x="1462" d="M68 854q0 22 46 60t79 44q20 5 71 5q20 0 41 -31q36 -52 91 -113t143 -145t163 -150q147 -127 256.5 -206.5t126.5 -79.5q36 0 50 9.5t14 43.5q0 3 -14 110t-21 205q-7 92 -13.5 169t-12 163.5t-5.5 185.5q0 58 6 91.5t31 58.5q20 17 50.5 31t48.5 14q53 0 81 -53 t37 -158q3 -16 10 -70.5t13 -167t6 -272.5q0 -185 -11 -304t-18 -167q-15 -71 -62 -105t-130 -34q-85 0 -235.5 64t-292.5 161.5t-207 181.5q-27 36 -47 55t-37 19q-7 0 -12 -22.5t-9 -69.5t-8 -110t-10 -152q-5 -75 -34.5 -113.5t-94.5 -38.5q-30 0 -45 18.5t-20 63.5 t-5 137q0 141 8 243.5t16.5 167t12.5 85.5q0 33 -28.5 91t-28.5 85zM293 1454q0 38 7.5 63t29.5 50.5t61 55.5t96 69q68 47 105 66.5t67 19.5q33 0 67.5 -20.5t98.5 -69.5q18 -12 32.5 -15.5t37.5 -3.5q21 0 40 6t36.5 17t38.5 24q64 40 90 53t80 13q32 0 32 -60 q0 -38 -10 -61q-9 -23 -70.5 -75t-129 -95.5t-95.5 -44.5q-37 0 -69.5 11t-60.5 30t-42 29q-43 30 -98 30q-42 0 -63.5 -10.5t-79.5 -46.5q-67 -40 -92.5 -52t-77.5 -12q-31 0 -31 29z" />
<glyph unicode="&#xd2;" horiz-adv-x="1608" d="M61 371q0 126 68 247.5t207 249.5q145 135 307 203t387 68q84 0 152 -20t139 -68q62 -40 106.5 -88.5t72.5 -106t40 -120t12 -134.5q0 -55 -24.5 -126.5t-73.5 -134.5t-115 -97q-2 -1 -45 -51.5t-116.5 -100t-212 -85.5t-344.5 -36q-109 0 -197 22.5t-162 70.5t-131 118 q-40 51 -55 90.5t-15 98.5zM299 469q0 -50 65.5 -115t172 -111t227.5 -46q90 0 208.5 36t174.5 72q133 93 133 256q0 84 -48.5 156.5t-141 116t-216.5 43.5q-127 0 -237.5 -32.5t-179.5 -84.5q-75 -58 -96 -101.5t-21 -62.5q-10 -9 -25.5 -39t-15.5 -88zM483 1647 q0 53 33 78.5t92 25.5q8 0 48 -6.5t115 -25t177.5 -55.5t216.5 -91q52 -23 75.5 -55t23.5 -48q0 -36 -66 -36q-51 0 -184 30q-84 21 -158 29.5t-150 13.5t-122 8t-58 9q-18 11 -30.5 51.5t-12.5 71.5z" />
<glyph unicode="&#xd3;" horiz-adv-x="1608" d="M61 371q0 126 68 247.5t207 249.5q145 135 307 203t387 68q84 0 152 -20t139 -68q62 -40 106.5 -88.5t72.5 -106t40 -120t12 -134.5q0 -55 -24.5 -126.5t-73.5 -134.5t-115 -97q-2 -1 -45 -51.5t-116.5 -100t-212 -85.5t-344.5 -36q-109 0 -197 22.5t-162 70.5t-131 118 q-40 51 -55 90.5t-15 98.5zM299 469q0 -50 65.5 -115t172 -111t227.5 -46q90 0 208.5 36t174.5 72q133 93 133 256q0 84 -48.5 156.5t-141 116t-216.5 43.5q-127 0 -237.5 -32.5t-179.5 -84.5q-75 -58 -96 -101.5t-21 -62.5q-10 -9 -25.5 -39t-15.5 -88zM471 1470 q0 16 24.5 48.5t73.5 54.5q123 57 215 90.5t151.5 49.5t99 23t42.5 7q34 6 60 6q55 0 84.5 -27t29.5 -75q0 -29 -13.5 -70.5t-31.5 -52.5q-3 -2 -272 -27q-92 -8 -223 -35.5t-181 -27.5q-59 0 -59 36z" />
<glyph unicode="&#xd4;" horiz-adv-x="1608" d="M61 371q0 126 68 247.5t207 249.5q145 135 307 203t387 68q84 0 152 -20t139 -68q62 -40 106.5 -88.5t72.5 -106t40 -120t12 -134.5q0 -55 -24.5 -126.5t-73.5 -134.5t-115 -97q-2 -1 -45 -51.5t-116.5 -100t-212 -85.5t-344.5 -36q-109 0 -197 22.5t-162 70.5t-131 118 q-40 51 -55 90.5t-15 98.5zM299 469q0 -50 65.5 -115t172 -111t227.5 -46q90 0 208.5 36t174.5 72q133 93 133 256q0 84 -48.5 156.5t-141 116t-216.5 43.5q-127 0 -237.5 -32.5t-179.5 -84.5q-75 -58 -96 -101.5t-21 -62.5q-10 -9 -25.5 -39t-15.5 -88zM461 1477 q0 49 31.5 84t86.5 62t164 69q48 18 87 32t60 20.5t34 6.5q19 0 48 -11t122 -48q49 -20 114.5 -47.5t97 -48t47 -49t15.5 -70.5q0 -30 -20.5 -36.5t-90.5 -6.5q-17 0 -82.5 20t-128.5 33.5t-149 13.5q-55 0 -112 -12t-122 -31.5t-94 -23.5h-49q-34 0 -46.5 11t-12.5 32z" />
<glyph unicode="&#xd5;" horiz-adv-x="1608" d="M61 371q0 126 68 247.5t207 249.5q145 135 307 203t387 68q84 0 152 -20t139 -68q62 -40 106.5 -88.5t72.5 -106t40 -120t12 -134.5q0 -55 -24.5 -126.5t-73.5 -134.5t-115 -97q-2 -1 -45 -51.5t-116.5 -100t-212 -85.5t-344.5 -36q-109 0 -197 22.5t-162 70.5t-131 118 q-40 51 -55 90.5t-15 98.5zM299 469q0 -50 65.5 -115t172 -111t227.5 -46q90 0 208.5 36t174.5 72q133 93 133 256q0 84 -48.5 156.5t-141 116t-216.5 43.5q-127 0 -237.5 -32.5t-179.5 -84.5q-75 -58 -96 -101.5t-21 -62.5q-10 -9 -25.5 -39t-15.5 -88zM412 1454 q0 72 34 112.5t158 125.5q68 47 105 66.5t69 19.5q31 0 68 -21.5t98 -68.5q18 -12 32.5 -15.5t37.5 -3.5q21 0 39 6t36 17t39 24q16 10 45 28.5t56.5 28t66.5 9.5q33 0 33 -62q0 -39 -10 -59q-8 -21 -70.5 -74.5t-130.5 -96.5t-94 -44q-26 0 -53 7t-45 16t-41 25t-33 22 q-43 30 -96 30q-41 0 -66.5 -12t-79.5 -45q-63 -38 -91 -51t-79 -13q-28 0 -28 29z" />
<glyph unicode="&#xd6;" horiz-adv-x="1608" d="M61 371q0 126 68 247.5t207 249.5q145 135 307 203t387 68q84 0 152 -20t139 -68q62 -40 106.5 -88.5t72.5 -106t40 -120t12 -134.5q0 -55 -24.5 -126.5t-73.5 -134.5t-115 -97q-2 -1 -45 -51.5t-116.5 -100t-212 -85.5t-344.5 -36q-109 0 -197 22.5t-162 70.5t-131 118 q-40 51 -55 90.5t-15 98.5zM299 469q0 -50 65.5 -115t172 -111t227.5 -46q90 0 208.5 36t174.5 72q133 93 133 256q0 84 -48.5 156.5t-141 116t-216.5 43.5q-127 0 -237.5 -32.5t-179.5 -84.5q-75 -58 -96 -101.5t-21 -62.5q-10 -9 -25.5 -39t-15.5 -88zM485 1489 q0 40 22.5 64.5t88.5 56.5q49 25 71.5 34.5t49.5 17t55 7.5q37 0 62.5 -37t25.5 -71q0 -58 -47.5 -76t-144.5 -29q-45 -4 -83.5 -11t-43.5 -7q-56 0 -56 51zM963 1503q0 41 26.5 65t89.5 52q112 49 148 49q40 0 65.5 -20t36 -43t10.5 -31q0 -50 -48.5 -82.5t-141.5 -36.5 q-52 -3 -84 -8.5t-45 -9.5q-26 0 -41.5 18.5t-15.5 46.5z" />
<glyph unicode="&#xd8;" horiz-adv-x="1608" d="M61 371q0 80 30.5 167.5t78.5 145.5q96 111 155 174t114 107t104 61q117 42 200 71.5t124.5 41.5t62.5 12q20 0 48 -10.5t34 -10.5q13 0 32 17t25 37q7 22 52.5 57t88.5 35q27 0 27 -25q0 -33 -9.5 -59.5t-33.5 -77.5q190 -83 274 -201.5t84 -310.5q0 -61 -29.5 -137 t-79.5 -138t-104 -83q-14 -6 -22 -21q-42 -73 -136.5 -129.5t-235.5 -88.5t-310 -32q-21 1 -38.5 1.5t-47.5 0.5q-22 -48 -54 -71t-85 -23q-58 0 -58 96q0 16 6 37q-27 13 -50.5 24.5t-53.5 31t-63.5 50t-59.5 62.5q-40 51 -55 90.5t-15 98.5zM299 469q0 -27 3.5 -41 t21.5 -27q44 -29 71 -55.5t52 -55t32 -28.5q5 0 14 15t42.5 73.5t54.5 96t63 106.5q33 55 91 143l116 176q-119 0 -216.5 -29t-161.5 -70t-99 -81t-35 -59q0 -40 -29 -66q-6 -6 -13 -36.5t-7 -61.5zM659 203q62 -4 156 -4q52 0 164.5 35.5t167.5 70.5q133 93 133 256 q0 92 -61.5 172t-178.5 119q-37 -63 -77.5 -130t-75.5 -125.5t-89 -151.5t-139 -242z" />
<glyph unicode="&#xd9;" horiz-adv-x="1487" d="M68 238q0 61 25 179.5t67 221.5q35 84 64.5 139.5t52.5 91.5t30 43q48 48 82 48q26 0 31.5 -8.5t5.5 -30.5q0 -7 -23 -55.5t-47 -110.5t-41.5 -151t-17.5 -197q0 -31 10 -66.5t21 -48.5q20 -25 123 -57.5t223 -32.5q55 0 122.5 13.5t127.5 33t84 33.5q42 23 93.5 87 t51.5 111q0 58 -96 477q-35 144 -35 152q0 24 21.5 48.5t53.5 45t58.5 32t34.5 11.5q32 0 82 -38t69 -72q7 -11 20 -52.5t21.5 -96t8.5 -114.5q0 -154 -11.5 -278t-19.5 -156q-13 -55 -32.5 -87t-39.5 -51.5t-51.5 -43t-42.5 -37.5q-5 -9 -21 -33.5t-62.5 -53t-135.5 -56.5 q-112 -34 -251 -56t-226 -22q-94 0 -192.5 28.5t-145.5 59.5q-92 65 -92 150zM352 1647q0 53 33 78.5t92 25.5q8 0 48 -6.5t115 -25t177.5 -55.5t216.5 -91q54 -24 76.5 -54.5t22.5 -48.5q0 -36 -64 -36q-51 0 -184 30q-84 21 -158 29.5t-150 13.5t-122 8t-58 9 q-18 11 -31.5 54t-13.5 69z" />
<glyph unicode="&#xda;" horiz-adv-x="1487" d="M68 238q0 61 25 179.5t67 221.5q35 84 64.5 139.5t52.5 91.5t30 43q48 48 82 48q26 0 31.5 -8.5t5.5 -30.5q0 -7 -23 -55.5t-47 -110.5t-41.5 -151t-17.5 -197q0 -31 10 -66.5t21 -48.5q20 -25 123 -57.5t223 -32.5q55 0 122.5 13.5t127.5 33t84 33.5q42 23 93.5 87 t51.5 111q0 58 -96 477q-35 144 -35 152q0 24 21.5 48.5t53.5 45t58.5 32t34.5 11.5q32 0 82 -38t69 -72q7 -11 20 -52.5t21.5 -96t8.5 -114.5q0 -154 -11.5 -278t-19.5 -156q-13 -55 -32.5 -87t-39.5 -51.5t-51.5 -43t-42.5 -37.5q-5 -9 -21 -33.5t-62.5 -53t-135.5 -56.5 q-112 -34 -251 -56t-226 -22q-94 0 -192.5 28.5t-145.5 59.5q-92 65 -92 150zM340 1470q0 17 23.5 48.5t74.5 54.5q123 57 215.5 90.5t154 50t99 23t41.5 6.5q34 6 60 6q54 0 83 -27t29 -75q0 -28 -13 -70.5t-30 -52.5q-2 -2 -272 -27q-93 -8 -225 -35.5t-181 -27.5 q-59 0 -59 36z" />
<glyph unicode="&#xdb;" horiz-adv-x="1487" d="M68 238q0 61 25 179.5t67 221.5q35 84 64.5 139.5t52.5 91.5t30 43q48 48 82 48q26 0 31.5 -8.5t5.5 -30.5q0 -7 -23 -55.5t-47 -110.5t-41.5 -151t-17.5 -197q0 -31 10 -66.5t21 -48.5q20 -25 123 -57.5t223 -32.5q55 0 122.5 13.5t127.5 33t84 33.5q42 23 93.5 87 t51.5 111q0 58 -96 477q-35 144 -35 152q0 24 21.5 48.5t53.5 45t58.5 32t34.5 11.5q32 0 82 -38t69 -72q7 -11 20 -52.5t21.5 -96t8.5 -114.5q0 -154 -11.5 -278t-19.5 -156q-13 -55 -32.5 -87t-39.5 -51.5t-51.5 -43t-42.5 -37.5q-5 -9 -21 -33.5t-62.5 -53t-135.5 -56.5 q-112 -34 -251 -56t-226 -22q-94 0 -192.5 28.5t-145.5 59.5q-92 65 -92 150zM336 1479q0 48 32.5 83.5t90 63t159.5 66.5q58 22 90.5 34t56 18.5t36.5 6.5q19 0 48 -11t122 -48q131 -53 175 -73.5t70.5 -53t26.5 -86.5q0 -31 -21 -38t-87 -7q-18 0 -84.5 20.5t-130 33.5 t-148.5 13q-56 0 -111.5 -12t-119.5 -31.5t-95 -23.5h-51q-59 0 -59 45z" />
<glyph unicode="&#xdc;" horiz-adv-x="1487" d="M68 238q0 61 25 179.5t67 221.5q35 84 64.5 139.5t52.5 91.5t30 43q48 48 82 48q26 0 31.5 -8.5t5.5 -30.5q0 -7 -23 -55.5t-47 -110.5t-41.5 -151t-17.5 -197q0 -31 10 -66.5t21 -48.5q20 -25 123 -57.5t223 -32.5q55 0 122.5 13.5t127.5 33t84 33.5q42 23 93.5 87 t51.5 111q0 58 -96 477q-35 144 -35 152q0 24 21.5 48.5t53.5 45t58.5 32t34.5 11.5q32 0 82 -38t69 -72q7 -11 20 -52.5t21.5 -96t8.5 -114.5q0 -154 -11.5 -278t-19.5 -156q-13 -55 -32.5 -87t-39.5 -51.5t-51.5 -43t-42.5 -37.5q-5 -9 -21 -33.5t-62.5 -53t-135.5 -56.5 q-112 -34 -251 -56t-226 -22q-94 0 -192.5 28.5t-145.5 59.5q-92 65 -92 150zM313 1489q0 38 24.5 63t88.5 58q49 25 71.5 34.5t49.5 17t55 7.5q36 0 61 -37.5t25 -70.5q0 -59 -46.5 -76.5t-143.5 -28.5q-47 -4 -85 -11t-44 -7q-56 0 -56 51zM793 1503q0 41 26 66t88 51 q112 49 148 49q40 0 65.5 -20t36 -43t10.5 -31q0 -52 -48 -82.5t-142 -34.5q-44 -2 -80 -9t-49 -11q-55 0 -55 65z" />
<glyph unicode="&#x152;" horiz-adv-x="3037" d="M61 391q0 52 23.5 120t60.5 122q32 45 68.5 74t91.5 62.5t74 47t33 33.5q9 16 41.5 64.5t103 94.5t210.5 79.5t361 33.5q95 0 169.5 -15.5t132 -40t94 -49t49.5 -42.5q56 -70 65 -70q7 0 7 15q0 14 -7.5 22t-24 16t-22.5 13q-12 7 -20 26t-8 35q0 37 22 63.5t115 73.5 q131 67 252 97t201 35.5t266 13.5q105 4 236.5 20.5t174.5 16.5q51 0 82 -31.5t31 -63.5q0 -91 -89 -125t-294 -49q-11 -1 -98 -7.5t-158.5 -10.5t-157.5 -6q-127 -2 -172 -5.5t-78 -18.5t-43 -48q-3 -23 -7.5 -74t-4.5 -104q0 -72 5 -104t20 -41t72.5 -11.5t82.5 -5.5 q9 -1 38 -5t57 -6.5t59 -2.5q133 0 245 16t220 38t131 22q14 0 30.5 -22t16.5 -56q0 -66 -61 -110t-181 -72q-50 -12 -122.5 -29.5t-141.5 -30.5t-154.5 -22t-158.5 -9q-15 0 -37 2t-37 2q-22 0 -47 -16t-25 -27q0 -10 14.5 -35t38 -45t50.5 -20q5 0 49.5 8.5t90.5 14 t112 6.5q166 2 305 40t182 62q5 2 16.5 11.5t20.5 9.5q40 0 59 -13t19 -67q0 -55 -68.5 -111t-201.5 -100q-92 -30 -196.5 -51.5t-209.5 -33t-186 -11.5q-125 0 -196.5 12t-103.5 41.5t-32 85.5q0 11 15.5 59.5t15.5 93.5q0 26 -8 48t-17 22q-6 0 -9.5 -3.5t-7 -11.5 t-6.5 -14q-40 -69 -97 -120.5t-131 -88.5t-173 -71q-48 -17 -82.5 -27.5t-94.5 -19t-140 -8.5q-82 0 -144 16t-97 33.5t-58 29.5q-2 1 -56.5 11t-115 27.5t-129.5 50.5t-129 81q-59 49 -75 84t-16 76zM311 502q0 -33 60 -85.5t171 -92t259 -39.5q135 0 233 21.5t182.5 72.5 t174.5 141q55 57 55 103q0 88 -65.5 159t-192 111.5t-297.5 40.5q-46 0 -110 -4t-76 -4q-49 0 -73 -13t-24 -51q0 -6 5 -25t5 -22q0 -48 -29.5 -74t-84.5 -26q-29 0 -47 -2q-13 -4 -52.5 -38t-54.5 -57q-14 -23 -26.5 -61.5t-12.5 -54.5z" />
<glyph unicode="&#x178;" horiz-adv-x="1434" d="M35 684q0 59 17.5 109t53.5 104q51 72 102.5 108.5t88.5 36.5q41 0 41 -34q0 -15 -27 -71t-43 -93.5t-16 -67.5q0 -40 7 -60t42 -44q64 -41 238 -41q146 0 284 41.5t221.5 108t83.5 137.5q0 6 -16 50t-16 79q0 57 39 99.5t88.5 65.5t66.5 23q27 0 41.5 -7t30.5 -28 q39 -51 39 -94q0 -15 -4 -28.5t-12 -44.5t-9 -42q0 -51 -9.5 -95t-37.5 -93q-39 -72 -85.5 -130t-97.5 -96t-112 -59q-8 -3 -23.5 -7.5t-24 -8t-15.5 -8.5q-21 -14 -37 -43t-16 -45q0 -35 13 -105.5t13 -99.5q0 -61 -19 -110.5t-55.5 -79t-89.5 -29.5q-59 0 -86.5 22 t-27.5 80q0 90 4.5 147t7.5 76q0 53 -6 75t-27 29t-76 7q-180 0 -297.5 24t-177 83t-59.5 159zM266 1489q0 39 24 64t89 57q49 25 71.5 34.5t49.5 17t55 7.5q36 0 62 -38t26 -70q0 -58 -47.5 -76t-144.5 -29q-47 -4 -85 -11t-44 -7q-56 0 -56 51zM745 1503q0 41 25.5 65.5 t89.5 51.5q112 49 150 49q40 0 65.5 -20t36 -43t10.5 -31q0 -52 -48 -82.5t-142 -34.5q-45 -2 -81.5 -9t-49.5 -11q-25 0 -40.5 19t-15.5 46z" />
<glyph unicode="&#x2c6;" horiz-adv-x="963" d="M27 1479q0 48 32.5 83.5t90 63t159.5 66.5q98 37 130.5 48t52.5 11q19 0 48 -11t122 -48q142 -59 180.5 -76.5t65 -50t26.5 -86.5q0 -31 -22 -38t-89 -7q-17 0 -82.5 20t-128.5 33.5t-149 13.5q-56 0 -111.5 -12t-119.5 -31.5t-95 -23.5h-51q-59 0 -59 45z" />
<glyph unicode="&#x2dc;" horiz-adv-x="971" d="M27 1454q0 37 8 63.5t28.5 51t54.5 51.5t101 72q68 47 105 66.5t69 19.5q31 0 68 -21.5t98 -68.5q18 -12 32.5 -15.5t37.5 -3.5q21 0 39 6t36 17t39 24q64 40 91 53t79 13q33 0 33 -58q0 -35 -12 -63q-8 -21 -70.5 -74.5t-130.5 -96.5t-94 -44q-38 0 -69.5 11t-59 30 t-41.5 29q-43 30 -98 30q-43 0 -67.5 -12t-78.5 -45q-58 -36 -88.5 -50t-81.5 -14q-28 0 -28 29z" />
<glyph unicode="&#x2000;" horiz-adv-x="952" />
<glyph unicode="&#x2001;" horiz-adv-x="1905" />
<glyph unicode="&#x2002;" horiz-adv-x="952" />
<glyph unicode="&#x2003;" horiz-adv-x="1905" />
<glyph unicode="&#x2004;" horiz-adv-x="635" />
<glyph unicode="&#x2005;" horiz-adv-x="476" />
<glyph unicode="&#x2006;" horiz-adv-x="317" />
<glyph unicode="&#x2007;" horiz-adv-x="317" />
<glyph unicode="&#x2008;" horiz-adv-x="238" />
<glyph unicode="&#x2009;" horiz-adv-x="381" />
<glyph unicode="&#x200a;" horiz-adv-x="105" />
<glyph unicode="&#x2010;" horiz-adv-x="942" d="M41 494q0 15 30.5 44.5t75.5 39.5q32 8 115.5 17t163.5 9q240 0 350.5 -25t110.5 -87q0 -14 -45 -31q-35 -13 -86.5 -18t-128 -9t-174.5 -10q-72 -5 -158 -19t-117 -14q-63 0 -100 36t-37 67z" />
<glyph unicode="&#x2011;" horiz-adv-x="942" d="M41 494q0 15 30.5 44.5t75.5 39.5q32 8 115.5 17t163.5 9q240 0 350.5 -25t110.5 -87q0 -14 -45 -31q-35 -13 -86.5 -18t-128 -9t-174.5 -10q-72 -5 -158 -19t-117 -14q-63 0 -100 36t-37 67z" />
<glyph unicode="&#x2012;" horiz-adv-x="942" d="M41 494q0 15 30.5 44.5t75.5 39.5q32 8 115.5 17t163.5 9q240 0 350.5 -25t110.5 -87q0 -14 -45 -31q-35 -13 -86.5 -18t-128 -9t-174.5 -10q-72 -5 -158 -19t-117 -14q-63 0 -100 36t-37 67z" />
<glyph unicode="&#x2013;" horiz-adv-x="1120" d="M41 494q0 15 37 44.5t91 39.5q39 8 140 17t198 9q291 0 424.5 -25t133.5 -87q0 -14 -54 -31q-43 -13 -105.5 -18t-155 -9t-210.5 -10q-87 -5 -191.5 -19t-141.5 -14q-76 0 -121 36t-45 67z" />
<glyph unicode="&#x2014;" horiz-adv-x="2040" d="M41 467q0 11 21 34.5t39.5 33t120.5 26t285 30t423 13.5q24 0 163 -3t250 -5.5t236 -3.5q152 -2 231 -9.5t127 -29.5t48 -66q0 -13 -43.5 -29.5t-114.5 -19.5q-21 0 -72.5 -1t-116 -2.5t-303.5 -5.5t-481 -7q-141 -1 -268 -10.5t-199.5 -19t-139.5 -20t-73 -10.5 q-54 0 -93.5 36.5t-39.5 68.5z" />
<glyph unicode="&#x2018;" horiz-adv-x="391" d="M41 676q0 48 16 122.5t49.5 195t65.5 249.5q16 60 53.5 94.5t77.5 34.5q26 0 44 -18.5t18 -55.5q0 -42 -12.5 -129t-37.5 -245q-14 -89 -36.5 -154t-72.5 -106t-134 -41q-31 0 -31 53z" />
<glyph unicode="&#x2019;" horiz-adv-x="391" d="M41 694q0 39 6 85.5t15 105t28 184.5q25 147 73 224t171 77q31 0 31 -53q0 -51 -15 -115.5t-53.5 -204t-65.5 -247.5q-14 -59 -52 -94t-77 -35q-26 0 -43.5 19t-17.5 54z" />
<glyph unicode="&#x201c;" horiz-adv-x="801" d="M41 676q0 48 16 122.5t49.5 195t65.5 249.5q16 60 53.5 94.5t77.5 34.5q26 0 44 -18.5t18 -55.5q0 -43 -12.5 -130t-37.5 -244q-15 -95 -37.5 -158t-71.5 -103t-134 -40q-31 0 -31 53zM451 676q0 35 8 81t28 125t44 166t51 195q14 58 52.5 93.5t78.5 35.5q25 0 43 -18.5 t18 -55.5q0 -55 -49 -374q-14 -90 -37.5 -155.5t-73 -105.5t-133.5 -40q-30 0 -30 53z" />
<glyph unicode="&#x201d;" horiz-adv-x="801" d="M41 694q0 39 6 85.5t15 105t28 184.5q25 147 73 224t171 77q31 0 31 -53q0 -51 -15 -115.5t-53.5 -204t-65.5 -247.5q-14 -59 -52 -94t-77 -35q-26 0 -43.5 19t-17.5 54zM451 694q0 39 6 85.5t15 105t28 184.5q23 145 71.5 223t171.5 78q31 0 31 -53q0 -49 -15.5 -118.5 t-60 -233.5t-57.5 -215q-14 -59 -52 -94t-77 -35q-27 0 -44 19t-17 54z" />
<glyph unicode="&#x201e;" horiz-adv-x="842" d="M55 -203q0 26 7 87t18.5 136.5t23.5 153.5q25 147 72.5 223t171.5 76q31 0 31 -53q0 -51 -15 -115.5t-49 -188t-69 -263.5q-14 -58 -51.5 -93.5t-77.5 -35.5q-27 0 -44.5 19t-17.5 54zM465 -203q0 39 6 86t14.5 104t28.5 187q25 147 72.5 223t171.5 76q30 0 30 -53 q0 -49 -15.5 -118.5t-60 -233.5t-57.5 -215q-14 -59 -52 -94t-77 -35q-26 0 -43.5 19t-17.5 54z" />
<glyph unicode="&#x2022;" horiz-adv-x="600" d="M27 590q0 131 81 202.5t193 71.5q70 0 132 -31.5t101 -93.5t39 -149q0 -76 -36.5 -138.5t-100 -99.5t-137.5 -37q-113 0 -192.5 80.5t-79.5 194.5z" />
<glyph unicode="&#x2026;" horiz-adv-x="1559" d="M55 43q0 13 11.5 44t21.5 48q27 43 85 76t85 33q104 0 104 -140q0 -41 -68.5 -79.5t-135.5 -38.5q-103 0 -103 57zM621 51q0 33 19.5 72.5t61.5 69.5q33 24 69 37.5t54 13.5q43 0 70 -36t27 -67q0 -78 -55.5 -116.5t-198.5 -38.5q-21 0 -34 18.5t-13 46.5zM1198 35 q0 82 75 145.5t136 63.5q22 0 44.5 -15.5t36 -42.5t13.5 -65t-17 -58.5t-54 -39.5q-67 -37 -140 -37q-45 0 -69.5 13t-24.5 36z" />
<glyph unicode="&#x202f;" horiz-adv-x="381" />
<glyph unicode="&#x2039;" horiz-adv-x="430" d="M96 489q0 14 7 37.5t25.5 70t25.5 65.5q41 103 67 157t54 84.5t65 30.5q22 0 32.5 -12.5t10.5 -47.5q0 -49 -6 -86t-14.5 -61t-14.5 -43q-59 -169 -59 -190q0 -34 10 -68t35 -105t38 -126t13 -109q0 -59 -45 -59q-4 0 -26 13.5t-35 25.5q-31 29 -74.5 119.5t-76 184 t-32.5 119.5z" />
<glyph unicode="&#x203a;" horiz-adv-x="430" d="M47 80q0 50 6 87t15 61t16 42q59 180 59 217q0 11 -59 191q-6 18 -15.5 43.5t-15.5 61.5t-6 85q0 60 45 60q36 0 64.5 -30.5t55.5 -89.5t64 -153q33 -79 46.5 -114t13.5 -56q0 -25 -33 -120.5t-75.5 -186t-73.5 -119.5q-17 -15 -36.5 -27t-25.5 -12q-45 0 -45 60z" />
<glyph unicode="&#x205f;" horiz-adv-x="476" />
<glyph unicode="&#x2122;" horiz-adv-x="2066" d="M35 1198q0 79 227 88q121 6 217 15.5t181.5 21.5t143 21.5t77.5 9.5q69 0 69 -54q0 -16 -15.5 -42.5t-31.5 -38.5q-20 -15 -87 -34t-148 -28q-76 -9 -99.5 -19t-23.5 -44q0 -21 3.5 -76t7 -123.5t3.5 -116.5q0 -94 -7.5 -166t-16.5 -92q-13 -22 -37 -35.5t-37 -13.5 q-64 0 -64 90q0 19 3.5 70t5.5 93.5t2 113.5q0 158 -3 209t-15 65t-50 14q-128 0 -186.5 3.5t-88.5 18.5t-30 50zM727 457q0 49 44 145.5t134 261.5q93 173 139 234q13 15 13 22q0 9 -4 37t-4 47q0 25 36.5 55.5t69.5 30.5q26 0 39 -12t24 -39t48 -131q14 -37 34.5 -106.5 t30 -101.5t14.5 -44t11 -12q13 0 24 43q51 157 113 264q27 44 63 67t74 23q48 0 84 -47.5t129 -206.5q76 -127 116 -231.5t40 -130.5q0 -31 -32 -64t-56 -33q-33 0 -48.5 8t-29 30t-45.5 90t-66 132q-48 96 -90.5 153.5t-56.5 57.5q-7 0 -12.5 -13t-31.5 -73.5t-40 -89.5 q-56 -116 -80.5 -176t-30.5 -80q-15 -36 -42.5 -57t-49.5 -21q-32 0 -50 16.5t-30.5 51.5t-27 104t-31.5 123q-15 52 -25 92t-16.5 59t-15.5 19q-6 0 -18 -22.5t-70 -132.5q-65 -127 -83 -162t-39 -78.5t-30 -69.5q-12 -31 -28.5 -43.5t-65.5 -15.5q-14 0 -22.5 9t-8.5 18z " />
<glyph unicode="&#x25fc;" horiz-adv-x="1335" d="M0 0v1335h1335v-1335h-1335z" />
</font>
</defs>
</svg>
